<svg width="201" height="174" viewBox="0 0 201 174" fill="none" xmlns="http://www.w3.org/2000/svg">
<circle cx="100.703" cy="86.7963" r="86.7963" fill="#333333"/>
<path d="M123.126 31.5354C123.126 31.5354 141.296 12.4042 144.954 9.51068C148.457 6.73967 149.64 6.93783 151.242 8.232C151.333 8.26297 151.405 8.32177 151.457 8.40994L174.046 30.4098C175.938 32.4195 175.594 33.5715 173.994 35.6367L152.019 59.1582L125.349 33.6603L123.126 31.5354Z" fill="white"/>
<path d="M151.457 8.40994C149.74 6.96116 148.612 6.61715 144.954 9.51068C141.296 12.4042 123.126 31.5354 123.126 31.5354L125.349 33.6603M151.457 8.40994L174.046 30.4098C175.938 32.4195 175.594 33.5715 173.994 35.6367L152.019 59.1582L125.349 33.6603M151.457 8.40994C150.137 6.19328 136.479 22.5286 125.349 33.6603" stroke="#232323"/>
<path d="M57.4732 91.0815L109.281 37.4906C115.822 30.6985 119.317 27.9985 124.081 32.4435L152.213 59.526C156.014 63.1901 155.096 66.0563 148.624 72.3092L98.3127 126.048C75.8884 147.202 62.642 154.029 48.5296 156.818C39.6717 156.661 35.6638 154.263 32.3711 146.992C31.8411 145.821 31.3296 144.525 30.8194 143.091C28.4782 128.604 44.0427 105.798 57.4732 91.0815Z" fill="#F1D62B"/>
<path d="M124.081 32.4435C119.317 27.9985 115.822 30.6985 109.281 37.4906L57.4732 91.0815C44.0427 105.798 28.4782 128.604 30.8194 143.091C31.3296 144.525 31.8411 145.821 32.3711 146.992M124.081 32.4435L152.213 59.526C156.014 63.1901 155.096 66.0563 148.624 72.3092L98.3127 126.048C75.8884 147.202 62.642 154.029 48.5296 156.818C39.6717 156.661 35.6638 154.263 32.3711 146.992M124.081 32.4435C76.2691 83.3513 37.5733 118.012 32.3711 146.992" stroke="#232323"/>
</svg>
