<svg width="66" height="66" viewBox="0 0 66 66" fill="none" xmlns="http://www.w3.org/2000/svg">
<g opacity="0.4">
<circle cx="32.9999" cy="39.3554" r="26.6444" fill="#333333"/>
<path d="M44.5595 53.541C44.703 55.2665 45.0707 55.9808 45.7817 57.2077L36.9816 63.5632C36.2482 63.0743 36.2482 62.5854 35.5149 61.8521C34.5371 60.8743 33.9775 61.11 32.3371 59.8966C30.3816 58.6743 29.3468 57.4312 28.915 56.7188C28.7935 56.3846 28.6928 56.2219 28.426 55.9854C27.6927 55.4966 28.0078 54.8289 27.4482 54.2743C26.7398 53.3906 27.0809 53.0521 26.9593 51.341C26.8984 50.484 27.2038 50.1188 27.9372 49.8743C27.1694 49.6873 26.9714 49.3504 26.715 48.6521C26.5041 47.2998 26.9036 46.6972 27.9372 45.7188C26.9593 45.2299 26.1731 44.0324 26.2261 42.7854C26.2261 42.0521 26.8023 41.2547 27.6928 41.0743C27.9474 41.0228 28.1029 41.0154 28.4261 41.0743C28.0564 40.3168 27.9634 39.8271 27.9372 38.8743C27.7423 37.9896 27.9359 37.5576 28.9149 36.9188C29.4065 36.5304 29.8495 36.5904 30.626 36.6743C30.5349 34.2437 30.445 32.9174 27.6928 33.0077L18.4038 33.4965C16.2038 33.4966 16.2038 33.2521 15.9593 31.0521L14.2482 12.4743C14.0241 10.5318 14.2482 9.78545 16.2038 9.78543L46.7593 8.31877C48.227 8.23355 48.4243 8.85076 48.4704 10.2743L49.2038 29.5854C49.2641 31.0689 48.9468 31.4291 47.9815 31.541L36.4927 32.2743C35.2706 32.511 34.8881 33.9881 35.2706 35.6966C35.6718 35.0901 36.2483 34.9632 36.7372 35.2077C37.3231 35.9125 37.3329 36.3703 37.4706 37.1632C37.9594 37.6521 37.9368 37.992 38.4483 38.6299C39.0456 39.2914 39.1383 39.5187 39.1817 39.8521C39.4261 40.5855 40.1777 41.9822 41.1372 43.0299C43.0928 44.741 43.3372 46.2077 43.3372 46.6966C43.3372 47.1855 43.4868 47.3691 43.5817 47.6743C44.4983 50.623 44.5735 51.7309 44.5595 53.541Z" fill="#F1D62B"/>
<path d="M35.2706 35.6966C35.6718 35.0901 36.2483 34.9632 36.7372 35.2077C37.3231 35.9125 37.3329 36.3703 37.4706 37.1632C37.9594 37.6521 37.9368 37.992 38.4483 38.6299C39.0456 39.2914 39.1383 39.5187 39.1817 39.8521C39.4261 40.5855 40.1777 41.9822 41.1372 43.0299C43.0928 44.741 43.3372 46.2077 43.3372 46.6966C43.3372 47.1855 43.4868 47.3691 43.5817 47.6743C44.4983 50.623 44.5735 51.7309 44.5594 53.541C44.703 55.2665 45.0707 55.9808 45.7817 57.2077L36.9816 63.5632C36.2482 63.0743 36.2482 62.5854 35.5149 61.8521C34.5371 60.8743 33.9775 61.11 32.3371 59.8966C30.3816 58.6743 29.3468 57.4312 28.915 56.7188C28.7935 56.3846 28.6928 56.2219 28.426 55.9854C27.6927 55.4966 28.0078 54.8289 27.4482 54.2743C26.7398 53.3906 27.0809 53.0521 26.9593 51.341C26.8984 50.484 27.2038 50.1188 27.9372 49.8743M35.2706 35.6966V38.8743C35.2706 39.7365 35.4958 40.411 35.8287 41.0743M35.2706 35.6966C34.8881 33.9881 35.2706 32.511 36.4927 32.2743L47.9815 31.541C48.9468 31.4291 49.2641 31.0689 49.2038 29.5854L48.4704 10.2743C48.4243 8.85076 48.227 8.23355 46.7593 8.31877L16.2038 9.78543C14.2482 9.78545 14.0241 10.5318 14.2482 12.4743L15.9593 31.0521C16.2038 33.2521 16.2038 33.4966 18.4038 33.4965L27.6928 33.0077C30.445 32.9175 30.5349 34.2437 30.626 36.6743M37.715 44.741C37.9102 45.2015 38.1451 45.471 38.6928 45.9632M37.715 44.741C37.6432 45.1452 37.6487 45.4732 37.715 46.2077M37.715 44.741C37.1204 43.1059 36.3451 42.1035 35.8287 41.0743M35.8287 41.0743C36.7827 46.4061 36.9297 48.7461 36.9817 52.5632C36.7247 53.8942 36.2034 54.3701 34.2928 54.5188M34.2928 54.5188C34.5088 53.9476 34.6238 53.6273 34.0483 53.0521M34.2928 54.5188C33.7328 55.0323 33.3538 55.1209 32.5816 55.0077C32.1292 54.9152 31.8772 54.8681 31.3593 54.5188C31.1473 54.3923 30.9647 54.2943 30.7821 54.2203M34.0483 53.0521C33.892 52.8958 33.7669 52.7645 33.662 52.6521M34.0483 53.0521L33.662 52.6521M27.9372 49.8743C28.5201 49.862 28.6941 49.9372 28.915 50.1188C30.1104 50.8501 30.8105 51.1555 32.0928 51.5854C33.1195 51.9961 33.1112 52.0621 33.662 52.6521M27.9372 49.8743C27.1694 49.6873 26.9714 49.3504 26.715 48.6521C26.5041 47.2998 26.9036 46.6972 27.9372 45.7188M33.662 52.6521C34.2596 52.8959 34.5552 52.9175 35.0261 52.8077C35.8287 53.0521 36.7567 51.7805 36.2483 50.8521C35.9324 50.2593 35.7331 49.9217 33.5595 48.8966C33.2398 48.7436 32.958 48.6076 32.7019 48.4816M27.9372 45.7188C28.9041 45.9476 29.4346 46.3973 30.3817 47.1854C31.1985 47.7064 31.7859 48.0306 32.7019 48.4816M27.9372 45.7188C26.9593 45.2299 26.1731 44.0324 26.2261 42.7854C26.2261 42.0521 26.8023 41.2547 27.6928 41.0743C27.9474 41.0228 28.1029 41.0154 28.4261 41.0743M28.4261 41.0743C29.6808 42.1628 30.5641 43.1497 31.3593 43.2743M28.4261 41.0743C28.0564 40.3168 27.9634 39.8271 27.9372 38.8743C27.7423 37.9896 27.9359 37.5576 28.9149 36.9188C29.4065 36.5304 29.8495 36.5904 30.626 36.6743M32.7019 48.4816C33.1271 48.5762 33.3747 48.6157 33.9547 48.4816C35.2706 48.4816 35.5817 47.1928 35.2706 46.4521C35.0951 45.8469 35.0369 45.5127 33.5595 44.741L31.3593 43.2743M31.3593 43.2743C32.5816 43.2743 33.2619 42.3252 32.826 41.0743C32.5226 40.1559 32.3176 39.6487 31.3593 38.8743C31.3478 38.3699 31.2267 38.0584 30.626 37.4077V36.6743M27.9372 53.2966C28.5954 53.8599 28.9683 54.0403 29.6482 54.0299C30.1349 54.0338 30.4584 54.0893 30.7821 54.2203M30.7821 54.2203C29.9229 55.0579 29.5535 55.2336 28.9149 55.4966" stroke="#333333" stroke-width="0.0488889"/>
<path d="M44.5595 53.5412C44.703 55.2667 45.0707 55.981 45.7817 57.2079C47.3057 58.7321 47.0844 59.6744 48.3999 61.0714C44.9777 63.8002 40.3333 65.0224 38.5166 65.397C37.9356 64.5544 37.517 63.977 36.9816 63.5635C36.2482 63.0746 36.2482 62.5857 35.5149 61.8523C34.5371 60.8746 33.9776 61.1102 32.3371 59.8968C30.3816 58.6746 29.3468 57.4315 28.915 56.719C28.7936 56.3849 28.6928 56.2222 28.426 55.9857C27.6927 55.4968 28.0078 54.8291 27.4482 54.2746C26.7399 53.3908 27.0809 53.0523 26.9594 51.3412C26.8985 50.4842 27.2038 50.119 27.9373 49.8746C27.1695 49.6875 26.9714 49.3506 26.715 48.6523C26.5041 47.3001 26.9036 46.6974 27.9373 45.719C26.9594 45.2301 26.1732 44.0326 26.2262 42.7857C26.2262 42.0523 26.8024 41.2549 27.6928 41.0746C27.9474 41.023 28.103 41.0156 28.4262 41.0746C28.0564 40.3171 27.9635 39.8274 27.9373 38.8746C27.7423 37.9898 27.936 37.5578 28.9149 36.919C29.4065 36.5307 29.8495 36.5906 30.626 36.6746V37.4079C31.2267 38.0587 31.3478 38.3701 31.3594 38.8746C32.3176 39.6489 32.5226 40.1562 32.826 41.0746C32.8723 41.2075 32.9061 41.337 32.9279 41.4624C33.1012 42.4593 32.5208 43.1914 31.5333 43.2679C31.4766 43.2723 31.4186 43.2746 31.3594 43.2746L33.5595 44.7412C35.0369 45.5129 35.0951 45.8471 35.2706 46.4523C35.5817 47.193 35.2706 48.4818 33.9547 48.4818C33.3748 48.616 33.1272 48.5764 32.702 48.4818C32.9581 48.6079 33.2398 48.7438 33.5595 48.8968C35.7331 49.9219 35.9324 50.2595 36.2484 50.8523C36.7567 51.7807 35.8287 53.0523 35.0261 52.8079C34.5552 52.9177 34.2597 52.8962 33.662 52.6524L34.0484 53.0523C34.1505 53.1544 34.2309 53.2485 34.2928 53.3374C34.5798 53.7491 34.4705 54.0492 34.2928 54.519C36.2034 54.3703 36.7247 53.8944 36.9817 52.5635C36.9297 48.7463 36.7827 46.4064 35.8287 41.0746C35.4959 40.4112 35.2706 39.7368 35.2706 38.8746V35.6968C35.6718 35.0904 36.2484 34.9635 36.7373 35.2079C37.3231 35.9127 37.333 36.3705 37.4706 37.1635C37.9595 37.6523 37.9368 37.9922 38.4484 38.6301C39.0456 39.2917 39.1383 39.5189 39.1817 39.8524C39.4261 40.5857 40.1778 41.9824 41.1373 43.0301C43.0928 44.7412 43.3373 46.2079 43.3373 46.6968C43.3373 47.1857 43.4868 47.3693 43.5817 47.6746C44.4983 50.6232 44.5735 51.7312 44.5595 53.5412Z" fill="#FFD88D"/>
<path d="M37.4706 37.1635C37.9595 37.6523 37.9368 37.9922 38.4484 38.6301C39.0456 39.2917 39.1383 39.5189 39.1817 39.8524C39.4261 40.5857 40.1778 41.9824 41.1373 43.0301C43.0928 44.7412 43.3373 46.2079 43.3373 46.6968C43.3373 47.1857 43.4868 47.3693 43.5817 47.6746C44.4983 50.6232 44.5735 51.7312 44.5595 53.5412C44.703 55.2667 45.0707 55.981 45.7817 57.2079C47.3057 58.7321 47.0844 59.6744 48.3999 61.0714C44.9777 63.8002 40.3333 65.0224 38.5166 65.397C37.9356 64.5544 37.517 63.977 36.9816 63.5635C36.2482 63.0746 36.2482 62.5857 35.5149 61.8523C34.5371 60.8746 33.9776 61.1102 32.3371 59.8968C30.3816 58.6746 29.3468 57.4315 28.915 56.719C28.7936 56.3849 28.6928 56.2222 28.426 55.9857C27.6927 55.4968 28.0078 54.8291 27.4482 54.2746C26.7399 53.3908 27.0809 53.0523 26.9594 51.3412C26.8985 50.4842 27.2038 50.119 27.9373 49.8746M37.4706 37.1635C37.333 36.3705 37.3231 35.9127 36.7373 35.2079M37.4706 37.1635C36.9895 37.2321 36.7857 36.591 36.4221 35.4446C36.5148 35.2862 36.5831 35.2292 36.7373 35.2079M36.7373 35.2079C36.2484 34.9635 35.6718 35.0904 35.2706 35.6968V38.8746C35.2706 39.7368 35.4959 40.4112 35.8287 41.0746M37.715 44.7412C37.9102 45.2018 38.1452 45.4712 38.6928 45.9635M37.715 44.7412C37.6432 45.1454 37.6487 45.4735 37.715 46.2079M37.715 44.7412C37.1205 43.1061 36.3451 42.1038 35.8287 41.0746M35.8287 41.0746C36.7827 46.4063 36.9297 48.7463 36.9817 52.5635C36.7247 53.8944 36.2034 54.3703 34.2928 54.519M34.2928 54.519C33.9561 54.8277 33.8194 54.9501 33.4888 55.0002M34.2928 54.519C34.4705 54.0492 34.5798 53.7491 34.2928 53.3374M34.0484 53.0523C33.892 52.896 33.7669 52.7647 33.662 52.6524M34.0484 53.0523L33.662 52.6524M34.0484 53.0523C34.1505 53.1544 34.2309 53.2485 34.2928 53.3374M27.9373 49.8746C28.5201 49.8622 28.6941 49.9374 28.915 50.119C30.1104 50.8503 30.8105 51.1557 32.0928 51.5857C33.1196 51.9964 33.1113 52.0623 33.662 52.6524M27.9373 49.8746C27.1695 49.6875 26.9714 49.3506 26.715 48.6523C26.5041 47.3001 26.9036 46.6974 27.9373 45.719M33.662 52.6524C34.2597 52.8962 34.5552 52.9177 35.0261 52.8079M35.0261 52.8079C35.8287 53.0523 36.7567 51.7807 36.2484 50.8523M35.0261 52.8079C34.2221 52.3113 33.1634 52.0517 33.662 50.7569C34.2221 49.8668 34.8053 50.1235 36.2484 50.8523M36.2484 50.8523C35.9324 50.2595 35.7331 49.9219 33.5595 48.8968C33.2398 48.7438 32.9581 48.6079 32.702 48.4818M27.9373 45.719C28.9041 45.9478 29.4346 46.3975 30.3817 47.1857C31.1985 47.7067 31.786 48.0309 32.702 48.4818M27.9373 45.719C26.9594 45.2301 26.1732 44.0326 26.2262 42.7857C26.2262 42.0523 26.8024 41.2549 27.6928 41.0746C27.9474 41.023 28.103 41.0156 28.4262 41.0746M28.4262 41.0746C29.6808 42.1631 30.5641 43.15 31.3594 43.2746M28.4262 41.0746C28.0564 40.3171 27.9635 39.8274 27.9373 38.8746C27.7423 37.9898 27.936 37.5578 28.9149 36.919C29.4065 36.5307 29.8495 36.5906 30.626 36.6746V37.4079C31.2267 38.0587 31.3478 38.3701 31.3594 38.8746C32.3176 39.6489 32.5226 40.1562 32.826 41.0746C32.8723 41.2075 32.9061 41.337 32.9279 41.4624M32.702 48.4818C33.1272 48.5764 33.3747 48.616 33.9547 48.4818M33.9547 48.4818C35.2706 48.4818 35.5817 47.193 35.2706 46.4523M33.9547 48.4818C33.2444 48.1557 32.0757 47.1702 32.511 46.2002C33.0534 45.2147 34.0442 45.5972 35.2706 46.4523M35.2706 46.4523C35.0951 45.8471 35.0369 45.5129 33.5595 44.7412L31.3594 43.2746M31.3594 43.2746C31.4186 43.2746 31.4766 43.2723 31.5333 43.2679M27.9373 53.2968C28.5954 53.8602 28.9684 54.0405 29.6482 54.0301C30.135 54.0341 30.4584 54.0895 30.7821 54.2206M30.7821 54.2206C30.9647 54.2945 31.1473 54.3926 31.3594 54.519C31.8772 54.8683 32.1292 54.9155 32.5816 55.0079C32.8896 55.053 33.2695 55.0334 33.4888 55.0002M30.7821 54.2206C29.923 55.0581 29.5535 55.2338 28.9149 55.4968M33.4888 55.0002C32.7555 54.7557 31.9583 54.1236 32.2666 53.3374C32.49 52.7675 33.239 52.7639 34.2928 53.3374M31.5333 43.2679C32.5208 43.1914 33.1012 42.4593 32.9279 41.4624M31.5333 43.2679C30.2868 41.9523 30.0666 41.4624 30.7999 40.5779C31.2888 40.0891 32.0227 40.695 32.9279 41.4624" stroke="#333333" stroke-width="0.0488889"/>
<path d="M36.7371 35.2075C37.323 35.9124 37.3328 36.3701 37.4705 37.1631C36.9894 37.2317 36.7856 36.5906 36.422 35.4442C36.5147 35.2858 36.583 35.2288 36.7371 35.2075Z" fill="#F8D7D0"/>
<path d="M36.2482 50.852C36.7566 51.7804 35.8286 53.052 35.026 52.8075C34.222 52.3109 33.1633 52.0514 33.6619 50.7565C34.222 49.8664 34.8052 50.1231 36.2482 50.852Z" fill="#F8D7D0"/>
<path d="M35.2705 46.452C35.5816 47.1927 35.2705 48.4814 33.9546 48.4814C33.2442 48.1553 31.9685 47.1853 32.5109 46.1998C33.0533 45.2143 34.0441 45.5968 35.2705 46.452Z" fill="#F8D7D0"/>
<path d="M33.4887 54.9998C33.8193 54.9497 33.956 54.8274 34.2927 54.5186C34.4704 54.0488 34.5797 53.7488 34.2927 53.337C33.2389 52.7635 32.4899 52.7188 32.2665 53.2887C31.9582 54.0749 32.7554 54.7553 33.4887 54.9998Z" fill="#F8D7D0"/>
<path d="M32.9277 41.462C33.1011 42.4589 32.5207 43.1911 31.5331 43.2676C30.2867 41.9519 30.0665 41.462 30.7998 40.5776C31.2887 40.0887 32.0226 40.6946 32.9277 41.462Z" fill="#F8D7D0"/>
<path d="M36.7371 35.2075C37.323 35.9124 37.3328 36.3701 37.4705 37.1631C36.9894 37.2317 36.7856 36.5906 36.422 35.4442C36.5147 35.2858 36.583 35.2288 36.7371 35.2075Z" stroke="#333333" stroke-width="0.0488889"/>
<path d="M36.2482 50.852C36.7566 51.7804 35.8286 53.052 35.026 52.8075C34.222 52.3109 33.1633 52.0514 33.6619 50.7565C34.222 49.8664 34.8052 50.1231 36.2482 50.852Z" stroke="#333333" stroke-width="0.0488889"/>
<path d="M35.2705 46.452C35.5816 47.1927 35.2705 48.4814 33.9546 48.4814C33.2442 48.1553 31.9685 47.1853 32.5109 46.1998C33.0533 45.2143 34.0441 45.5968 35.2705 46.452Z" stroke="#333333" stroke-width="0.0488889"/>
<path d="M33.4887 54.9998C33.8193 54.9497 33.956 54.8274 34.2927 54.5186C34.4704 54.0488 34.5797 53.7488 34.2927 53.337C33.2389 52.7635 32.4899 52.7188 32.2665 53.2887C31.9582 54.0749 32.7554 54.7553 33.4887 54.9998Z" stroke="#333333" stroke-width="0.0488889"/>
<path d="M32.9277 41.462C33.1011 42.4589 32.5207 43.1911 31.5331 43.2676C30.2867 41.9519 30.0665 41.462 30.7998 40.5776C31.2887 40.0887 32.0226 40.6946 32.9277 41.462Z" stroke="#333333" stroke-width="0.0488889"/>
<path d="M16.1454 16.8896L18.1922 16.7902L18.2253 17.4722L17.5506 17.505L17.6941 20.4581L16.9791 20.4928L16.8356 17.5397L16.1786 17.5717L16.1454 16.8896Z" fill="#333333"/>
<path d="M21.465 19.1231L19.257 19.2304C19.2982 19.4199 19.3904 19.5682 19.5335 19.6752C19.6783 19.7805 19.8581 19.8279 20.0729 19.8174C20.3297 19.805 20.5461 19.7061 20.7222 19.5209L21.3142 19.7596C21.1796 19.9676 21.014 20.1251 20.8173 20.2321C20.6205 20.3374 20.3837 20.3968 20.1067 20.4103C19.6771 20.4311 19.3207 20.3155 19.0376 20.0634C18.7544 19.8096 18.6031 19.4826 18.5836 19.0823C18.5637 18.672 18.6815 18.3253 18.9369 18.0421C19.1939 17.7571 19.5255 17.6048 19.9317 17.5851C20.363 17.5641 20.7204 17.683 21.0038 17.9417C21.2872 18.1988 21.4396 18.5497 21.4612 18.9945L21.465 19.1231ZM20.7493 18.6253C20.6967 18.4776 20.601 18.3601 20.4622 18.2727C20.325 18.1852 20.1683 18.1458 19.9921 18.1543C19.8008 18.1636 19.6355 18.2245 19.4963 18.3369C19.4089 18.4072 19.3306 18.5275 19.2615 18.6976L20.7493 18.6253Z" fill="#333333"/>
<path d="M22.6834 18.4918L23.7056 18.4421L23.6585 17.4734L24.3483 17.4399L24.4789 20.1286L23.7891 20.1621L23.735 19.0476L22.7128 19.0972L22.767 20.2117L22.0772 20.2452L21.9466 17.5566L22.6364 17.5231L22.6834 18.4918Z" fill="#333333"/>
<path d="M25.5313 20.0775L25.5539 20.5445L24.9422 20.5742L24.8918 19.5363L25.3046 19.5163L26.1459 17.3526L26.589 17.3311L27.6485 19.4024L28.0689 19.382L28.1193 20.4199L27.4648 20.4517L27.4421 19.9847L25.5313 20.0775ZM26.9184 19.4379L26.4153 18.3278L26.007 19.4822L26.9184 19.4379Z" fill="#333333"/>
<path d="M31.2231 18.6492L29.0151 18.7564C29.0563 18.946 29.1485 19.0943 29.2916 19.2013C29.4364 19.3065 29.6162 19.3539 29.831 19.3435C30.0878 19.331 30.3042 19.2322 30.4803 19.0469L31.0723 19.2857C30.9377 19.4937 30.7721 19.6512 30.5754 19.7582C30.3786 19.8635 30.1418 19.9229 29.8648 19.9363C29.4352 19.9572 29.0788 19.8416 28.7957 19.5895C28.5125 19.3357 28.3612 19.0086 28.3417 18.6083C28.3218 18.1981 28.4396 17.8514 28.695 17.5681C28.952 17.2832 29.2836 17.1308 29.6898 17.1111C30.1211 17.0902 30.4785 17.209 30.7619 17.4678C31.0453 17.7248 31.1977 18.0758 31.2193 18.5206L31.2231 18.6492ZM30.5074 18.1514C30.4548 18.0037 30.3591 17.8861 30.2203 17.7987C30.0831 17.7113 29.9264 17.6718 29.7502 17.6804C29.5589 17.6897 29.3936 17.7505 29.2544 17.863C29.167 17.9333 29.0887 18.0535 29.0196 18.2237L30.5074 18.1514Z" fill="#333333"/>
<path d="M32.3894 17.0494L32.4038 17.3459C32.5221 17.218 32.652 17.12 32.7933 17.052C32.9347 16.9841 33.0876 16.9461 33.2521 16.9381C33.6096 16.9207 33.9198 17.0386 34.1828 17.2917C34.4458 17.5448 34.5873 17.8789 34.6075 18.2941C34.6269 18.6944 34.514 19.036 34.2686 19.3187C34.0232 19.5998 33.7234 19.7489 33.3693 19.7661C33.2115 19.7738 33.0633 19.7537 32.9248 19.706C32.7861 19.6566 32.6466 19.5725 32.5062 19.4538L32.5678 20.7216L31.8855 20.7547L31.7072 17.0825L32.3894 17.0494ZM33.1389 17.5678C32.9224 17.5783 32.7463 17.6595 32.6107 17.8114C32.4751 17.9633 32.4129 18.1563 32.4243 18.3902C32.4359 18.6291 32.5166 18.8192 32.6665 18.9606C32.8163 19.1002 32.9994 19.1648 33.2159 19.1543C33.4257 19.1441 33.5983 19.0606 33.7337 18.9038C33.8708 18.7468 33.9336 18.5522 33.9224 18.3199C33.9112 18.0893 33.8315 17.9041 33.6834 17.7643C33.5352 17.6229 33.3537 17.5574 33.1389 17.5678Z" fill="#333333"/>
<path d="M35.1109 16.9172L35.7982 16.8838L35.8471 17.8896L36.7448 16.8378L37.5832 16.7971L36.4258 18.1661L37.7289 19.485L36.8175 19.5293L35.9557 18.62L35.8868 18.7075L35.9288 19.5725L35.2415 19.6058L35.1109 16.9172Z" fill="#333333"/>
<path d="M40.6992 18.1889L38.4913 18.2962C38.5324 18.4857 38.6246 18.634 38.7678 18.741C38.9125 18.8463 39.0923 18.8937 39.3071 18.8832C39.5639 18.8708 39.7803 18.7719 39.9564 18.5867L40.5484 18.8254C40.4138 19.0334 40.2482 19.1909 40.0515 19.2979C39.8547 19.4032 39.6179 19.4626 39.341 19.4761C38.9113 19.497 38.5549 19.3813 38.2718 19.1292C37.9886 18.8755 37.8373 18.5484 37.8179 18.1481C37.798 17.7378 37.9157 17.3911 38.1711 17.1079C38.4281 16.8229 38.7597 16.6706 39.1659 16.6509C39.5972 16.6299 39.9546 16.7488 40.238 17.0075C40.5214 17.2646 40.6739 17.6155 40.6955 18.0603L40.6992 18.1889ZM39.9836 17.6911C39.931 17.5434 39.8353 17.4259 39.6964 17.3385C39.5593 17.251 39.4026 17.2116 39.2264 17.2201C39.035 17.2294 38.8697 17.2903 38.7305 17.4027C38.6431 17.473 38.5648 17.5933 38.4957 17.7634L39.9836 17.6911Z" fill="#333333"/>
<path d="M41.6764 19.2933L41.3114 19.311L41.1808 16.6224L41.8505 16.5898L41.9272 18.1689L43.2528 16.5217L43.5826 16.5057L43.7131 19.1944L43.0435 19.2269L42.9683 17.6799L41.6764 19.2933ZM41.3246 15.4264L41.881 15.3994C41.9279 15.4648 41.9908 15.513 42.0697 15.5438C42.1502 15.5729 42.2466 15.5847 42.3591 15.5793C42.4732 15.5737 42.5755 15.549 42.6659 15.5049C42.725 15.4756 42.7756 15.4253 42.8175 15.3539L43.3739 15.3269C43.3522 15.5377 43.2579 15.7107 43.0912 15.8459C42.9262 15.9811 42.6893 16.0562 42.3804 16.0712C42.1723 16.0813 41.9964 16.0618 41.8527 16.0126C41.7106 15.9617 41.5942 15.8856 41.5035 15.7843C41.4128 15.683 41.3531 15.5637 41.3246 15.4264Z" fill="#333333"/>
<path d="M46.9875 16.8853L46.4311 17.2219C46.3183 17.1168 46.208 17.0453 46.1002 17.0077C45.994 16.9699 45.8705 16.9544 45.7295 16.9613C45.4727 16.9737 45.2682 17.0596 45.1162 17.2189C44.9657 17.3765 44.8962 17.5731 44.9076 17.8087C44.9187 18.0377 45.0042 18.221 45.1639 18.3585C45.3237 18.4961 45.5278 18.5588 45.7762 18.5468C46.0833 18.5318 46.3175 18.4173 46.4787 18.203L47.0376 18.54C46.7621 18.9282 46.3566 19.1353 45.8212 19.1614C45.3395 19.1847 44.9551 19.0631 44.6679 18.7963C44.3824 18.5294 44.2305 18.2082 44.2123 17.8325C44.1996 17.5722 44.2543 17.3293 44.3762 17.1038C44.4982 16.8782 44.6744 16.6971 44.905 16.5604C45.1373 16.4236 45.4002 16.3481 45.694 16.3338C45.9659 16.3206 46.2127 16.3623 46.4344 16.4589C46.656 16.5538 46.8404 16.6959 46.9875 16.8853Z" fill="#333333"/>
<path d="M16.8995 24.3172L16.6944 24.3271L16.6191 22.7762L16.9953 22.758L17.0395 23.6688L17.783 22.7197L17.9682 22.7107L18.0436 24.2616L17.6674 24.2799L17.6241 23.3876L16.8995 24.3172Z" fill="#333333"/>
<path d="M19.3493 23.6238L19.7741 22.623L20.0287 22.6107L20.4887 24.1429L20.1111 24.1612L19.8619 23.2617L19.4478 24.1934L19.2894 24.2011L18.797 23.3135L18.6347 24.2329L18.2585 24.2512L18.5679 22.6816L18.8224 22.6693L19.3493 23.6238Z" fill="#333333"/>
<path d="M20.4572 22.5899L20.8517 22.5707L21.2992 23.5249L21.6932 22.5299L22.0891 22.5106L21.2275 24.6757L20.8287 24.695L21.1124 23.9969L20.4572 22.5899Z" fill="#333333"/>
<path d="M24.5843 23.5697L24.9775 23.5506L25.0088 24.1963L24.6397 24.2142L24.6265 23.942L22.3822 24.0509L22.3069 22.5001L22.6944 22.4812L22.7516 23.6587L23.2805 23.633L23.2233 22.4556L23.6108 22.4367L23.668 23.6142L24.1983 23.5884L24.1411 22.411L24.5272 22.3922L24.5843 23.5697Z" fill="#333333"/>
<path d="M26.7184 23.176L25.4782 23.2362C25.5015 23.3456 25.5533 23.4312 25.6338 23.493C25.7152 23.5538 25.8162 23.5813 25.9369 23.5754C26.0812 23.5684 26.2027 23.5116 26.3014 23.4048L26.6342 23.543C26.5587 23.6629 26.4658 23.7536 26.3554 23.8151C26.2449 23.8758 26.1119 23.9098 25.9564 23.9174C25.715 23.9291 25.5147 23.8622 25.3555 23.7165C25.1962 23.57 25.111 23.3812 25.0998 23.1503C25.0883 22.9137 25.1542 22.7138 25.2975 22.5506C25.4416 22.3864 25.6278 22.2988 25.856 22.2877C26.0983 22.2759 26.2991 22.3448 26.4585 22.4942C26.6179 22.6427 26.7038 22.8452 26.7162 23.1018L26.7184 23.176ZM26.316 22.8883C26.2864 22.8031 26.2325 22.7352 26.1545 22.6847C26.0774 22.6342 25.9893 22.6113 25.8903 22.6161C25.7829 22.6213 25.6901 22.6563 25.6119 22.7211C25.5629 22.7615 25.519 22.8308 25.4803 22.9289L26.316 22.8883Z" fill="#333333"/>
<path d="M28.5106 22.5132L28.1982 22.7069C28.1348 22.6462 28.0728 22.6049 28.0122 22.5831C27.9525 22.5612 27.8831 22.5522 27.8039 22.556C27.6596 22.563 27.5449 22.6124 27.4595 22.7042C27.3751 22.795 27.3362 22.9083 27.3428 23.0442C27.3492 23.1763 27.3974 23.2821 27.4872 23.3615C27.5771 23.441 27.6918 23.4773 27.8313 23.4706C28.0038 23.4622 28.1353 23.3963 28.2257 23.2728L28.5399 23.4676C28.3854 23.6913 28.1578 23.8105 27.857 23.8251C27.5864 23.8382 27.3704 23.7678 27.2089 23.6137C27.0483 23.4595 26.9627 23.2741 26.9522 23.0575C26.9449 22.9073 26.9755 22.7672 27.0438 22.6372C27.1121 22.5072 27.211 22.4029 27.3404 22.3242C27.4708 22.2455 27.6185 22.2021 27.7835 22.1941C27.9362 22.1867 28.0749 22.2109 28.1995 22.2668C28.3241 22.3217 28.4278 22.4038 28.5106 22.5132Z" fill="#333333"/>
<path d="M28.7075 22.1893L30.1414 22.1196L30.1594 22.4902L29.6489 22.515L29.7062 23.6953L29.3187 23.7141L29.2614 22.5338L28.7255 22.5599L28.7075 22.1893Z" fill="#333333"/>
<path d="M30.4699 23.6582L30.3946 22.1073L31.0126 22.0773C31.2153 22.0675 31.3549 22.1012 31.4314 22.1784C31.5078 22.2547 31.5485 22.3437 31.5535 22.4454C31.5608 22.5965 31.4916 22.7089 31.3459 22.7827C31.553 22.8431 31.6612 22.9707 31.6707 23.1655C31.6758 23.271 31.6532 23.3598 31.6028 23.4317C31.5524 23.5028 31.4862 23.5517 31.4044 23.5785C31.3235 23.6053 31.209 23.6223 31.061 23.6295L30.4699 23.6582ZM30.8117 22.6986L30.9602 22.6914C31.0233 22.6883 31.0711 22.6703 31.1035 22.6373C31.1368 22.6033 31.1526 22.5668 31.1507 22.5278C31.1478 22.4699 31.1292 22.4255 31.0946 22.3948C31.06 22.3641 31.0201 22.3499 30.9749 22.3521L30.9254 22.3559L30.7953 22.3622L30.8117 22.6986ZM30.8428 23.3401L31.0366 23.3306C31.112 23.327 31.1639 23.3068 31.1924 23.2702C31.2217 23.2326 31.2356 23.1967 31.2339 23.1625C31.2315 23.1121 31.2118 23.0669 31.1749 23.0267C31.1389 22.9866 31.0762 22.9687 30.9866 22.973L30.8254 22.9808L30.8428 23.3401Z" fill="#333333"/>
<path d="M32.6652 21.9571C32.8104 21.95 32.9484 21.98 33.0792 22.047C33.211 22.1139 33.3157 22.2084 33.3935 22.3303C33.4712 22.4523 33.5136 22.586 33.5207 22.7314C33.5278 22.8777 33.4981 23.0163 33.4317 23.1472C33.3663 23.278 33.2731 23.3825 33.1521 23.4608C33.0311 23.5381 32.8957 23.5804 32.7458 23.5877C32.5252 23.5984 32.3328 23.5287 32.1686 23.3786C32.0054 23.2274 31.9182 23.0387 31.9073 22.8126C31.8955 22.5702 31.9738 22.364 32.1423 22.1939C32.2901 22.0458 32.4644 21.9668 32.6652 21.9571ZM32.6886 22.3231C32.5689 22.3289 32.471 22.3761 32.395 22.4646C32.3199 22.552 32.2855 22.6613 32.2918 22.7925C32.2984 22.9274 32.3428 23.0348 32.4251 23.1146C32.5084 23.1944 32.6104 23.2314 32.731 23.2255C32.8517 23.2196 32.9501 23.1725 33.0261 23.084C33.1021 22.9955 33.1369 22.8848 33.1305 22.7518C33.124 22.6187 33.0792 22.5128 32.9959 22.4339C32.9136 22.3541 32.8112 22.3172 32.6886 22.3231Z" fill="#333333"/>
<path d="M36.1329 22.143L35.8206 22.3368C35.7571 22.2761 35.6951 22.2348 35.6345 22.2129C35.5749 22.1911 35.5055 22.1821 35.4263 22.1859C35.282 22.1929 35.1672 22.2423 35.0819 22.3341C34.9975 22.4249 34.9586 22.5382 34.9652 22.6741C34.9716 22.8062 35.0197 22.912 35.1096 22.9914C35.1994 23.0709 35.3141 23.1072 35.4537 23.1004C35.6262 23.0921 35.7577 23.0261 35.8481 22.9027L36.1623 23.0975C36.0078 23.3212 35.7801 23.4404 35.4794 23.455C35.2088 23.4681 34.9928 23.3976 34.8312 23.2435C34.6707 23.0894 34.5851 22.904 34.5746 22.6873C34.5673 22.5372 34.5978 22.3971 34.6662 22.2671C34.7345 22.1371 34.8334 22.0328 34.9628 21.9541C35.0932 21.8754 35.2409 21.832 35.4059 21.824C35.5586 21.8166 35.6973 21.8408 35.8219 21.8967C35.9465 21.9516 36.0501 22.0337 36.1329 22.143Z" fill="#333333"/>
<path d="M37.1416 21.7797L38.5755 21.7101L38.5935 22.0807L38.083 22.1055L38.1403 23.2858L37.7528 23.3046L37.6955 22.1243L37.1596 22.1503L37.1416 21.7797Z" fill="#333333"/>
<path d="M39.5494 21.6228C39.6946 21.6157 39.8326 21.6457 39.9634 21.7127C40.0952 21.7796 40.1999 21.8741 40.2777 21.9961C40.3554 22.118 40.3978 22.2517 40.4049 22.3971C40.412 22.5434 40.3823 22.682 40.3159 22.8129C40.2505 22.9437 40.1572 23.0483 40.0363 23.1265C39.9153 23.2038 39.7799 23.2461 39.63 23.2534C39.4094 23.2641 39.217 23.1944 39.0528 23.0443C38.8896 22.8931 38.8024 22.7045 38.7914 22.4783C38.7797 22.236 38.858 22.0297 39.0265 21.8596C39.1743 21.7115 39.3486 21.6325 39.5494 21.6228ZM39.5728 21.9888C39.4531 21.9947 39.3552 22.0418 39.2792 22.1303C39.204 22.2177 39.1697 22.327 39.176 22.4582C39.1826 22.5931 39.227 22.7005 39.3093 22.7803C39.3926 22.8601 39.4945 22.8971 39.6152 22.8912C39.7359 22.8854 39.8343 22.8382 39.9103 22.7497C39.9863 22.6613 40.0211 22.5505 40.0146 22.4175C40.0082 22.2844 39.9633 22.1785 39.8801 22.0997C39.7978 22.0198 39.6954 21.9829 39.5728 21.9888Z" fill="#333333"/>
<path d="M41.0673 21.5891L41.0756 21.7601C41.142 21.6864 41.2148 21.63 41.2942 21.5909C41.3736 21.5518 41.4594 21.53 41.5518 21.5255C41.7527 21.5158 41.927 21.584 42.0749 21.7302C42.2228 21.8764 42.3026 22.0692 42.3142 22.3087C42.3254 22.5396 42.2622 22.7365 42.1246 22.8994C41.9869 23.0613 41.8186 23.1471 41.6197 23.1568C41.5311 23.1611 41.4478 23.1494 41.3699 23.1218C41.292 23.0932 41.2136 23.0446 41.1347 22.976L41.1702 23.7073L40.7869 23.7259L40.6841 21.6077L41.0673 21.5891ZM41.4887 21.8887C41.3671 21.8946 41.2682 21.9413 41.1921 22.0288C41.1161 22.1163 41.0813 22.2276 41.0878 22.3625C41.0945 22.5003 41.14 22.61 41.2243 22.6916C41.3086 22.7723 41.4115 22.8097 41.5331 22.8038C41.651 22.7981 41.7479 22.75 41.8238 22.6597C41.9007 22.5693 41.9359 22.4571 41.9294 22.3231C41.9229 22.19 41.878 22.0831 41.7947 22.0024C41.7114 21.9207 41.6094 21.8828 41.4887 21.8887Z" fill="#333333"/>
<path d="M42.5946 21.5149L43.4926 21.4713L43.5106 21.8419L43.0001 21.8667L43.0574 23.047L42.6699 23.0658L42.5946 21.5149Z" fill="#333333"/>
<path d="M44.4763 21.3835C44.6215 21.3765 44.7595 21.4065 44.8904 21.4734C45.0221 21.5404 45.1269 21.6348 45.2046 21.7568C45.2824 21.8788 45.3248 22.0124 45.3318 22.1578C45.339 22.3042 45.3093 22.4428 45.2429 22.5737C45.1774 22.7045 45.0842 22.809 44.9633 22.8873C44.8423 22.9646 44.7068 23.0069 44.5569 23.0142C44.3363 23.0249 44.1439 22.9552 43.9798 22.805C43.8165 22.6539 43.7294 22.4652 43.7184 22.239C43.7066 21.9967 43.785 21.7905 43.9534 21.6204C44.1012 21.4722 44.2755 21.3933 44.4763 21.3835ZM44.4998 21.7496C44.3801 21.7554 44.2822 21.8026 44.2061 21.891C44.131 21.9785 44.0966 22.0878 44.103 22.2189C44.1096 22.3539 44.154 22.4613 44.2363 22.5411C44.3196 22.6209 44.4215 22.6578 44.5422 22.652C44.6629 22.6461 44.7612 22.599 44.8373 22.5105C44.9133 22.422 44.9481 22.3113 44.9416 22.1782C44.9351 22.0452 44.8903 21.9392 44.8071 21.8604C44.7248 21.7806 44.6224 21.7436 44.4998 21.7496Z" fill="#333333"/>
<path d="M45.6863 22.9193L45.611 21.3684L46.229 21.3384C46.4317 21.3286 46.5713 21.3623 46.6478 21.4395C46.7243 21.5158 46.765 21.6048 46.77 21.7065C46.7773 21.8576 46.7081 21.97 46.5624 22.0438C46.7694 22.1042 46.8777 22.2319 46.8871 22.4267C46.8923 22.5321 46.8696 22.6209 46.8193 22.6929C46.7689 22.7639 46.7027 22.8128 46.6209 22.8397C46.5399 22.8664 46.4255 22.8834 46.2775 22.8906L45.6863 22.9193ZM46.0281 21.9597L46.1766 21.9525C46.2398 21.9494 46.2876 21.9314 46.32 21.8984C46.3533 21.8644 46.369 21.8279 46.3671 21.7889C46.3643 21.731 46.3456 21.6866 46.3111 21.6559C46.2765 21.6252 46.2366 21.611 46.1913 21.6132L46.1419 21.617L46.0118 21.6233L46.0281 21.9597ZM46.0593 22.6012L46.253 22.5918C46.3285 22.5881 46.3804 22.568 46.4089 22.5313C46.4382 22.4937 46.4521 22.4578 46.4504 22.4236C46.448 22.3732 46.4283 22.328 46.3914 22.2879C46.3554 22.2477 46.2926 22.2298 46.2031 22.2341L46.0418 22.242L46.0593 22.6012Z" fill="#333333"/>
</g>
</svg>
