<svg width="145" height="21" viewBox="0 0 145 21" fill="none" xmlns="http://www.w3.org/2000/svg">
<path d="M19.9129 15.0744C18.0292 19.1108 14.1205 20.9944 10.2255 20.9944C4.57813 20.9944 0 16.4163 0 10.7689C0 9.29448 0.164867 8.14981 0.494601 7.20583C16.1456 4.84883 17.5608 14.536 19.9129 15.0744Z" fill="#333333"/>
<path d="M20.9891 10.7691C20.9192 12.3067 20.72 12.9218 20.4509 13.7291C10.8637 12.8546 16.8217 4.09313 1.07617 5.92542C2.69073 2.15812 6.62509 0.00537109 10.8011 0.00537109C16.4277 0.00537109 21.2582 4.84905 20.9891 10.7691Z" fill="#F1D62B"/>
<path d="M29 2.28512H36.7162V4.84416H34.1726V15.9241H31.4772V4.84416H29V2.28512Z" fill="#333333"/>
<path d="M48.5991 11.6127H40.2754C40.3956 12.3297 40.7152 12.9015 41.234 13.328C41.7592 13.7483 42.4267 13.9585 43.2366 13.9585C44.2047 13.9585 45.0368 13.6278 45.7328 12.9664L47.9157 13.9677C47.3716 14.7218 46.7198 15.2812 45.9606 15.6459C45.2013 16.0045 44.2996 16.1837 43.2556 16.1837C41.6358 16.1837 40.3165 15.6861 39.2978 14.6909C38.2791 13.6896 37.7698 12.4379 37.7698 10.9358C37.7698 9.39667 38.276 8.12024 39.2883 7.10651C40.307 6.0866 41.582 5.57665 43.1132 5.57665C44.7394 5.57665 46.0618 6.0866 47.0805 7.10651C48.0992 8.12024 48.6086 9.46158 48.6086 11.1305L48.5991 11.6127ZM45.9985 9.6192C45.8277 9.0567 45.4892 8.59929 44.983 8.24695C44.4831 7.89462 43.901 7.71846 43.2366 7.71846C42.5153 7.71846 41.8826 7.91626 41.3384 8.31186C40.9967 8.55911 40.6804 8.99489 40.3893 9.6192H45.9985Z" fill="#333333"/>
<path d="M53.2972 9.47085H57.1505V5.83626H59.7511V15.9241H57.1505V11.7425H53.2972V15.9241H50.6966V5.83626H53.2972V9.47085Z" fill="#333333"/>
<path d="M63.7184 15.9241V17.6765H61.412V13.7823H62.9686L66.5277 5.83626H68.1982L71.8048 13.7823H73.3898V17.6765H70.9221V15.9241H63.7184ZM69.0524 13.7823L67.363 9.53575L65.6166 13.7823H69.0524Z" fill="#333333"/>
<path d="M85.3865 11.6127H77.0628C77.1831 12.3297 77.5026 12.9015 78.0214 13.328C78.5466 13.7483 79.2142 13.9585 80.0241 13.9585C80.9921 13.9585 81.8242 13.6278 82.5202 12.9664L84.7032 13.9677C84.159 14.7218 83.5073 15.2812 82.748 15.6459C81.9887 16.0045 81.0871 16.1837 80.043 16.1837C78.4232 16.1837 77.104 15.6861 76.0853 14.6909C75.0665 13.6896 74.5572 12.4379 74.5572 10.9358C74.5572 9.39667 75.0634 8.12024 76.0758 7.10651C77.0945 6.0866 78.3694 5.57665 79.9007 5.57665C81.5268 5.57665 82.8492 6.0866 83.8679 7.10651C84.8867 8.12024 85.396 9.46158 85.396 11.1305L85.3865 11.6127ZM82.786 9.6192C82.6151 9.0567 82.2766 8.59929 81.7704 8.24695C81.2706 7.89462 80.6884 7.71846 80.0241 7.71846C79.3027 7.71846 78.67 7.91626 78.1258 8.31186C77.7842 8.55911 77.4678 8.99489 77.1767 9.6192H82.786Z" fill="#333333"/>
<path d="M90.0656 5.83626V6.94889C90.5338 6.49147 91.04 6.14841 91.5842 5.91971C92.1283 5.691 92.7105 5.57665 93.3306 5.57665C94.6783 5.57665 95.8235 6.07424 96.7663 7.06942C97.7091 8.06461 98.1805 9.34104 98.1805 10.8987C98.1805 12.4008 97.6933 13.6587 96.7189 14.6724C95.7444 15.6799 94.5897 16.1837 93.2546 16.1837C92.6599 16.1837 92.1062 16.0817 91.5937 15.8777C91.0812 15.6676 90.5718 15.3276 90.0656 14.8578V19.6143H87.4935V5.83626H90.0656ZM92.7896 7.91317C91.9733 7.91317 91.2963 8.18514 90.7585 8.72909C90.2206 9.27305 89.9517 9.98389 89.9517 10.8616C89.9517 11.7579 90.2206 12.4842 90.7585 13.0405C91.2963 13.5907 91.9733 13.8657 92.7896 13.8657C93.5805 13.8657 94.2449 13.5845 94.7827 13.022C95.3268 12.4595 95.5989 11.7425 95.5989 10.8709C95.5989 10.0055 95.3332 9.29777 94.8017 8.74764C94.2702 8.19132 93.5995 7.91317 92.7896 7.91317Z" fill="#333333"/>
<path d="M100.325 5.83626H102.917V9.60993L106.485 5.83626H109.646L105.043 10.7504L109.703 15.9241H106.267L103.192 12.3637L102.917 12.6789V15.9241H100.325V5.83626Z" fill="#333333"/>
<path d="M121.111 11.6127H112.787C112.907 12.3297 113.227 12.9015 113.746 13.328C114.271 13.7483 114.939 13.9585 115.748 13.9585C116.717 13.9585 117.549 13.6278 118.245 12.9664L120.428 13.9677C119.883 14.7218 119.232 15.2812 118.472 15.6459C117.713 16.0045 116.811 16.1837 115.767 16.1837C114.148 16.1837 112.828 15.6861 111.81 14.6909C110.791 13.6896 110.282 12.4379 110.282 10.9358C110.282 9.39667 110.788 8.12024 111.8 7.10651C112.819 6.0866 114.094 5.57665 115.625 5.57665C117.251 5.57665 118.574 6.0866 119.592 7.10651C120.611 8.12024 121.12 9.46158 121.12 11.1305L121.111 11.6127ZM118.51 9.6192C118.34 9.0567 118.001 8.59929 117.495 8.24695C116.995 7.89462 116.413 7.71846 115.748 7.71846C115.027 7.71846 114.394 7.91626 113.85 8.31186C113.509 8.55911 113.192 8.99489 112.901 9.6192H118.51Z" fill="#333333"/>
<path d="M124.585 15.9241H123.208V5.83626H125.733V11.761L131.02 5.83626H132.263V15.9241H129.738V10.1199L124.585 15.9241ZM123.968 1.38574H126.065C126.23 1.63917 126.458 1.83079 126.749 1.9606C127.046 2.08423 127.407 2.14604 127.831 2.14604C128.261 2.14604 128.65 2.07186 128.998 1.92351C129.226 1.82461 129.425 1.64536 129.596 1.38574H131.694C131.573 2.17076 131.187 2.80125 130.536 3.27721C129.89 3.75317 128.985 3.99115 127.821 3.99115C127.037 3.99115 126.379 3.88607 125.847 3.6759C125.322 3.45956 124.898 3.15359 124.575 2.75798C124.252 2.36238 124.05 1.90497 123.968 1.38574Z" fill="#333333"/>
<path d="M145 7.87608L142.846 9.03507C142.441 8.62092 142.039 8.33349 141.64 8.17278C141.248 8.01207 140.786 7.93171 140.254 7.93171C139.286 7.93171 138.502 8.21605 137.901 8.78473C137.306 9.34722 137.009 10.0704 137.009 10.9544C137.009 11.8135 137.296 12.5151 137.872 13.0591C138.448 13.603 139.204 13.875 140.141 13.875C141.298 13.875 142.2 13.4887 142.846 12.716L144.886 14.079C143.779 15.4821 142.216 16.1837 140.198 16.1837C138.382 16.1837 136.958 15.6583 135.927 14.6075C134.901 13.5567 134.389 12.3266 134.389 10.9173C134.389 9.94062 134.639 9.04125 135.139 8.21914C135.639 7.39703 136.335 6.75109 137.227 6.28131C138.125 5.81153 139.128 5.57665 140.235 5.57665C141.261 5.57665 142.181 5.77754 142.997 6.17932C143.814 6.57492 144.481 7.14051 145 7.87608Z" fill="#333333"/>
</svg>
