<svg width="113" height="27" viewBox="0 0 113 27" fill="none" xmlns="http://www.w3.org/2000/svg">
<path d="M25.6031 19.3755C23.1812 24.5654 18.1555 26.9873 13.1475 26.9873C5.88636 26.9873 0 21.1009 0 13.8397C0 11.944 0.211978 10.4722 0.635935 9.25852C20.7593 6.22799 22.5789 18.6833 25.6031 19.3755Z" fill="#333333"/>
<path d="M26.985 13.8395C26.8951 15.8165 26.639 16.6074 26.293 17.6454C13.9661 16.5209 21.6267 5.25585 1.38184 7.61174C3.45776 2.7679 8.51639 0 13.8857 0C21.1202 0 27.3309 6.22778 26.985 13.8395Z" fill="#F1D62B"/>
<path d="M32.4429 1.78864H37.8015V3.56581H36.0351V11.2604H34.1632V3.56581H32.4429V1.78864Z" fill="#333333"/>
<path d="M46.0537 8.26627H40.2732C40.3567 8.76422 40.5786 9.16129 40.9389 9.45748C41.3036 9.74938 41.7672 9.89533 42.3297 9.89533C43.002 9.89533 43.5798 9.66567 44.0632 9.20636L45.5791 9.90177C45.2012 10.4255 44.7486 10.814 44.2213 11.0672C43.694 11.3162 43.0679 11.4407 42.3429 11.4407C41.218 11.4407 40.3018 11.0951 39.5943 10.404C38.8869 9.7086 38.5331 8.83934 38.5331 7.79622C38.5331 6.72735 38.8847 5.84091 39.5877 5.13692C40.2952 4.42863 41.1806 4.07449 42.244 4.07449C43.3733 4.07449 44.2916 4.42863 44.9991 5.13692C45.7066 5.84091 46.0603 6.77242 46.0603 7.93144L46.0537 8.26627ZM44.2477 6.88188C44.1291 6.49125 43.894 6.1736 43.5424 5.92891C43.1953 5.68423 42.7911 5.56189 42.3297 5.56189C41.8287 5.56189 41.3893 5.69926 41.0114 5.97399C40.7741 6.14569 40.5544 6.44833 40.3523 6.88188H44.2477Z" fill="#333333"/>
<path d="M49.3163 6.77886H51.9924V4.25478H53.7984V11.2604H51.9924V8.35641H49.3163V11.2604H47.5103V4.25478H49.3163V6.77886Z" fill="#333333"/>
<path d="M56.5535 11.2604V12.4774H54.9518V9.77299H56.0328L58.5045 4.25478H59.6645L62.1692 9.77299H63.2699V12.4774H61.5562V11.2604H56.5535ZM60.2577 9.77299L59.0845 6.82393L57.8717 9.77299H60.2577Z" fill="#333333"/>
<path d="M71.6012 8.26627H65.8207C65.9042 8.76422 66.1261 9.16129 66.4864 9.45748C66.8511 9.74938 67.3147 9.89533 67.8771 9.89533C68.5495 9.89533 69.1273 9.66567 69.6106 9.20636L71.1266 9.90177C70.7487 10.4255 70.2961 10.814 69.7688 11.0672C69.2415 11.3162 68.6154 11.4407 67.8903 11.4407C66.7654 11.4407 65.8493 11.0951 65.1418 10.404C64.4343 9.7086 64.0806 8.83934 64.0806 7.79622C64.0806 6.72735 64.4321 5.84091 65.1352 5.13692C65.8427 4.42863 66.7281 4.07449 67.7915 4.07449C68.9208 4.07449 69.8391 4.42863 70.5466 5.13692C71.254 5.84091 71.6078 6.77242 71.6078 7.93144L71.6012 8.26627ZM69.7952 6.88188C69.6765 6.49125 69.4415 6.1736 69.0899 5.92891C68.7428 5.68423 68.3385 5.56189 67.8771 5.56189C67.3762 5.56189 66.9368 5.69926 66.5589 5.97399C66.3216 6.14569 66.1019 6.44833 65.8998 6.88188H69.7952Z" fill="#333333"/>
<path d="M74.8506 4.25478V5.02746C75.1758 4.7098 75.5273 4.47156 75.9052 4.31273C76.2831 4.1539 76.6874 4.07449 77.118 4.07449C78.054 4.07449 78.8493 4.42004 79.504 5.11116C80.1587 5.80228 80.4861 6.68872 80.4861 7.77047C80.4861 8.81358 80.1478 9.68714 79.4711 10.3911C78.7944 11.0908 77.9924 11.4407 77.0653 11.4407C76.6522 11.4407 76.2677 11.3699 75.9118 11.2282C75.5559 11.0823 75.2022 10.8462 74.8506 10.5199V13.8231H73.0644V4.25478H74.8506ZM76.7423 5.69711C76.1755 5.69711 75.7053 5.88599 75.3318 6.26374C74.9583 6.6415 74.7715 7.13515 74.7715 7.74471C74.7715 8.36715 74.9583 8.87153 75.3318 9.25787C75.7053 9.63992 76.1755 9.83094 76.7423 9.83094C77.2916 9.83094 77.753 9.63563 78.1265 9.24499C78.5044 8.85436 78.6933 8.35641 78.6933 7.75115C78.6933 7.15018 78.5088 6.65867 78.1396 6.27662C77.7705 5.89028 77.3048 5.69711 76.7423 5.69711Z" fill="#333333"/>
<path d="M81.9757 4.25478H83.7751V6.87545L86.2534 4.25478H88.4483L85.2515 7.66744L88.4878 11.2604H86.1018L83.9663 8.78783L83.7751 9.00675V11.2604H81.9757V4.25478Z" fill="#333333"/>
<path d="M96.4104 8.26627H90.63C90.7135 8.76422 90.9354 9.16129 91.2957 9.45748C91.6604 9.74938 92.124 9.89533 92.6864 9.89533C93.3587 9.89533 93.9366 9.66567 94.4199 9.20636L95.9359 9.90177C95.558 10.4255 95.1054 10.814 94.5781 11.0672C94.0508 11.3162 93.4246 11.4407 92.6996 11.4407C91.5747 11.4407 90.6585 11.0951 89.9511 10.404C89.2436 9.7086 88.8899 8.83934 88.8899 7.79622C88.8899 6.72735 89.2414 5.84091 89.9445 5.13692C90.6519 4.42863 91.5374 4.07449 92.6007 4.07449C93.73 4.07449 94.6484 4.42863 95.3559 5.13692C96.0633 5.84091 96.417 6.77242 96.417 7.93144L96.4104 8.26627ZM94.6045 6.88188C94.4858 6.49125 94.2507 6.1736 93.8992 5.92891C93.5521 5.68423 93.1478 5.56189 92.6864 5.56189C92.1855 5.56189 91.7461 5.69926 91.3682 5.97399C91.1309 6.14569 90.9112 6.44833 90.7091 6.88188H94.6045Z" fill="#333333"/>
<path d="M98.8228 11.2604H97.8671V4.25478H99.6204V8.36929L103.292 4.25478H104.155V11.2604H102.402V7.22959L98.8228 11.2604ZM98.3944 1.16406H99.851C99.9653 1.34006 100.123 1.47313 100.326 1.56328C100.532 1.64913 100.783 1.69206 101.077 1.69206C101.376 1.69206 101.646 1.64055 101.888 1.53752C102.046 1.46884 102.184 1.34435 102.303 1.16406H103.76C103.676 1.70923 103.408 2.14708 102.956 2.47762C102.507 2.80815 101.879 2.97342 101.07 2.97342C100.526 2.97342 100.069 2.90044 99.6995 2.75449C99.3347 2.60425 99.0403 2.39176 98.8162 2.11703C98.5921 1.8423 98.4515 1.52465 98.3944 1.16406Z" fill="#333333"/>
<path d="M113 5.67135L111.504 6.47623C111.223 6.18862 110.944 5.98901 110.667 5.8774C110.395 5.76579 110.074 5.70999 109.705 5.70999C109.033 5.70999 108.488 5.90745 108.07 6.30238C107.657 6.69301 107.451 7.19525 107.451 7.8091C107.451 8.40578 107.651 8.893 108.051 9.27075C108.45 9.6485 108.975 9.83738 109.626 9.83738C110.43 9.83738 111.056 9.56909 111.504 9.03251L112.921 9.97904C112.152 10.9535 111.067 11.4407 109.665 11.4407C108.404 11.4407 107.416 11.0758 106.699 10.3461C105.987 9.61631 105.632 8.76207 105.632 7.78334C105.632 7.1051 105.805 6.48052 106.152 5.9096C106.499 5.33867 106.983 4.89009 107.602 4.56385C108.226 4.23761 108.923 4.07449 109.692 4.07449C110.404 4.07449 111.043 4.214 111.61 4.49302C112.177 4.76775 112.64 5.16053 113 5.67135Z" fill="#333333"/>
<path opacity="0.8" d="M33.8304 22.631L35.8608 19.4206H36.6177V23.8232H35.8608V20.6128L33.8304 23.8232H33.0817V19.4206H33.8304V22.631ZM40.3571 22.8223L41.8545 19.4206H42.5788L40.6175 23.8232H40.0967L38.1436 19.4206H38.8678L40.3571 22.8223ZM38.6481 19.4206V23.8232H37.8953V19.4206H38.6481ZM42.0417 23.8232V19.4206H42.7985V23.8232H42.0417ZM45.248 23.3675L46.4728 19.4206H47.2785L45.5125 24.5028C45.4718 24.6113 45.4176 24.7279 45.3498 24.8527C45.2847 24.9802 45.2006 25.1009 45.0975 25.2148C44.9944 25.3288 44.8696 25.421 44.7231 25.4915C44.5794 25.5648 44.4071 25.6014 44.2064 25.6014C44.1467 25.6014 44.0707 25.5933 43.9785 25.577C43.8863 25.5607 43.8212 25.5471 43.7832 25.5363L43.7791 24.9259C43.8008 24.9287 43.8347 24.9314 43.8809 24.9341C43.9297 24.9395 43.9636 24.9422 43.9826 24.9422C44.1535 24.9422 44.2986 24.9192 44.418 24.873C44.5373 24.8296 44.6377 24.755 44.7191 24.6493C44.8032 24.5462 44.8751 24.4038 44.9347 24.222L45.248 23.3675ZM44.3488 19.4206L45.4922 22.8385L45.6875 23.632L45.1463 23.9087L43.5269 19.4206H44.3488ZM54.0778 23.2048L54.0046 25.1294H53.3332V23.8232H52.7594V23.2048H54.0778ZM47.9784 19.4206H48.7311V23.2048H50.3424V19.4206H51.0993V23.2048H52.7065V19.4206H53.4593V23.8232H47.9784V19.4206ZM56.7349 23.9046C56.4283 23.9046 56.1503 23.8531 55.9007 23.75C55.6539 23.6442 55.4409 23.4964 55.2619 23.3065C55.0856 23.1166 54.9499 22.8914 54.855 22.631C54.76 22.3706 54.7126 22.0858 54.7126 21.7765V21.6056C54.7126 21.2476 54.7655 20.9288 54.8713 20.6494C54.9771 20.3673 55.1208 20.1286 55.3026 19.9333C55.4843 19.738 55.6905 19.5901 55.9211 19.4897C56.1516 19.3894 56.3904 19.3392 56.6372 19.3392C56.9519 19.3392 57.2231 19.3934 57.451 19.502C57.6816 19.6105 57.8701 19.7624 58.0166 19.9577C58.1631 20.1503 58.2716 20.3781 58.3421 20.6413C58.4127 20.9017 58.4479 21.1865 58.4479 21.4958V21.8335H55.1602V21.2191H57.6951V21.1621C57.6843 20.9668 57.6436 20.7769 57.5731 20.5924C57.5053 20.408 57.3968 20.2561 57.2476 20.1367C57.0984 20.0174 56.8949 19.9577 56.6372 19.9577C56.4663 19.9577 56.309 19.9943 56.1652 20.0675C56.0214 20.1381 55.898 20.2439 55.7949 20.3849C55.6918 20.526 55.6118 20.6982 55.5548 20.9017C55.4979 21.1051 55.4694 21.3398 55.4694 21.6056V21.7765C55.4694 21.9854 55.4979 22.1821 55.5548 22.3665C55.6145 22.5483 55.7 22.7083 55.8112 22.8467C55.9251 22.985 56.0621 23.0935 56.2222 23.1722C56.3849 23.2509 56.5694 23.2902 56.7756 23.2902C57.0414 23.2902 57.2665 23.2359 57.451 23.1274C57.6355 23.0189 57.7969 22.8738 57.9352 22.6921L58.3909 23.0542C58.296 23.198 58.1753 23.335 58.0288 23.4652C57.8823 23.5954 57.7019 23.7012 57.4876 23.7826C57.276 23.8639 57.0251 23.9046 56.7349 23.9046ZM61.0887 23.2861C61.2677 23.2861 61.4332 23.2495 61.5851 23.1763C61.737 23.103 61.8618 23.0027 61.9595 22.8752C62.0571 22.745 62.1127 22.5971 62.1263 22.4316H62.8424C62.8289 22.6921 62.7407 22.9348 62.578 23.16C62.4179 23.3824 62.2077 23.5628 61.9473 23.7012C61.6868 23.8368 61.4007 23.9046 61.0887 23.9046C60.7578 23.9046 60.4689 23.8463 60.222 23.7297C59.9779 23.613 59.7744 23.453 59.6117 23.2495C59.4516 23.0461 59.3309 22.8128 59.2495 22.5496C59.1708 22.2838 59.1315 22.003 59.1315 21.7074V21.5365C59.1315 21.2408 59.1708 20.9614 59.2495 20.6982C59.3309 20.4324 59.4516 20.1978 59.6117 19.9943C59.7744 19.7909 59.9779 19.6308 60.222 19.5142C60.4689 19.3975 60.7578 19.3392 61.0887 19.3392C61.4332 19.3392 61.7343 19.4097 61.992 19.5508C62.2497 19.6891 62.4518 19.879 62.5983 20.1204C62.7475 20.3592 62.8289 20.6304 62.8424 20.9342H62.1263C62.1127 20.7525 62.0612 20.5884 61.9717 20.4419C61.8849 20.2954 61.7655 20.1788 61.6136 20.092C61.4644 20.0024 61.2894 19.9577 61.0887 19.9577C60.8581 19.9577 60.6642 20.0038 60.5068 20.096C60.3522 20.1855 60.2288 20.3076 60.1366 20.4622C60.047 20.6141 59.9819 20.7837 59.9412 20.9709C59.9033 21.1553 59.8843 21.3439 59.8843 21.5365V21.7074C59.8843 21.9 59.9033 22.0898 59.9412 22.277C59.9792 22.4642 60.043 22.6337 60.1325 22.7856C60.2247 22.9376 60.3481 23.0596 60.5028 23.1519C60.6601 23.2414 60.8554 23.2861 61.0887 23.2861ZM65.4832 19.4206V23.8232H64.7264V19.4206H65.4832ZM66.9603 19.4206V20.0309H63.2778V19.4206H66.9603ZM69.7679 21.8864H68.3234L68.3153 21.2842H69.4953C69.7286 21.2842 69.9225 21.2611 70.0771 21.215C70.2345 21.1689 70.3525 21.0997 70.4311 21.0075C70.5098 20.9153 70.5492 20.8013 70.5492 20.6657C70.5492 20.5599 70.5261 20.4677 70.48 20.389C70.4366 20.3076 70.3701 20.2412 70.2806 20.1896C70.1911 20.1354 70.0799 20.096 69.9469 20.0716C69.8167 20.0445 69.6635 20.0309 69.4871 20.0309H68.5228V23.8232H67.77V19.4206H69.4871C69.7665 19.4206 70.0175 19.445 70.2399 19.4938C70.4651 19.5426 70.6563 19.6172 70.8136 19.7176C70.9737 19.8153 71.0958 19.9401 71.1798 20.092C71.2639 20.2439 71.306 20.4229 71.306 20.6291C71.306 20.762 71.2789 20.8881 71.2246 21.0075C71.1704 21.1268 71.0903 21.2326 70.9845 21.3249C70.8787 21.4171 70.7485 21.4931 70.5939 21.5527C70.4393 21.6097 70.2616 21.6463 70.0609 21.6626L69.7679 21.8864ZM69.7679 23.8232H68.0508L68.4251 23.2129H69.7679C69.9768 23.2129 70.1504 23.1871 70.2887 23.1356C70.4271 23.0813 70.5302 23.0054 70.598 22.9077C70.6685 22.8073 70.7038 22.688 70.7038 22.5496C70.7038 22.4113 70.6685 22.2933 70.598 22.1956C70.5302 22.0953 70.4271 22.0193 70.2887 21.9678C70.1504 21.9135 69.9768 21.8864 69.7679 21.8864H68.6245L68.6326 21.2842H70.0609L70.3335 21.512C70.5749 21.531 70.7797 21.5907 70.9479 21.6911C71.1161 21.7914 71.2436 21.9189 71.3304 22.0736C71.4172 22.2255 71.4606 22.391 71.4606 22.57C71.4606 22.7762 71.4213 22.9579 71.3426 23.1152C71.2667 23.2726 71.1554 23.4041 71.0089 23.5099C70.8625 23.613 70.6848 23.6917 70.4759 23.7459C70.267 23.7975 70.031 23.8232 69.7679 23.8232ZM72.2703 21.6707V21.5771C72.2703 21.2598 72.3165 20.9654 72.4087 20.6942C72.5009 20.4202 72.6338 20.1828 72.8075 19.9821C72.9811 19.7786 73.1913 19.6213 73.4382 19.5101C73.685 19.3962 73.9617 19.3392 74.2682 19.3392C74.5775 19.3392 74.8555 19.3962 75.1024 19.5101C75.3519 19.6213 75.5635 19.7786 75.7371 19.9821C75.9135 20.1828 76.0477 20.4202 76.14 20.6942C76.2322 20.9654 76.2783 21.2598 76.2783 21.5771V21.6707C76.2783 21.9881 76.2322 22.2824 76.14 22.5537C76.0477 22.825 75.9135 23.0623 75.7371 23.2658C75.5635 23.4665 75.3533 23.6239 75.1064 23.7378C74.8623 23.849 74.5856 23.9046 74.2764 23.9046C73.9671 23.9046 73.6891 23.849 73.4422 23.7378C73.1954 23.6239 72.9838 23.4665 72.8075 23.2658C72.6338 23.0623 72.5009 22.825 72.4087 22.5537C72.3165 22.2824 72.2703 21.9881 72.2703 21.6707ZM73.0231 21.5771V21.6707C73.0231 21.8905 73.0489 22.098 73.1004 22.2933C73.152 22.4859 73.2293 22.6568 73.3324 22.806C73.4382 22.9552 73.5697 23.0732 73.7271 23.16C73.8844 23.2441 74.0675 23.2861 74.2764 23.2861C74.4825 23.2861 74.6629 23.2441 74.8175 23.16C74.9749 23.0732 75.1051 22.9552 75.2082 22.806C75.3113 22.6568 75.3886 22.4859 75.4401 22.2933C75.4944 22.098 75.5215 21.8905 75.5215 21.6707V21.5771C75.5215 21.3601 75.4944 21.1553 75.4401 20.9627C75.3886 20.7674 75.3099 20.5952 75.2041 20.446C75.101 20.2941 74.9708 20.1747 74.8135 20.0879C74.6589 20.0011 74.4771 19.9577 74.2682 19.9577C74.0621 19.9577 73.8803 20.0011 73.723 20.0879C73.5684 20.1747 73.4382 20.2941 73.3324 20.446C73.2293 20.5952 73.152 20.7674 73.1004 20.9627C73.0489 21.1553 73.0231 21.3601 73.0231 21.5771ZM81.0513 23.2861C81.2303 23.2861 81.3958 23.2495 81.5477 23.1763C81.6996 23.103 81.8244 23.0027 81.922 22.8752C82.0197 22.745 82.0753 22.5971 82.0889 22.4316H82.805C82.7914 22.6921 82.7033 22.9348 82.5405 23.16C82.3805 23.3824 82.1702 23.5628 81.9098 23.7012C81.6494 23.8368 81.3632 23.9046 81.0513 23.9046C80.7203 23.9046 80.4314 23.8463 80.1846 23.7297C79.9404 23.613 79.737 23.453 79.5742 23.2495C79.4142 23.0461 79.2935 22.8128 79.2121 22.5496C79.1334 22.2838 79.0941 22.003 79.0941 21.7074V21.5365C79.0941 21.2408 79.1334 20.9614 79.2121 20.6982C79.2935 20.4324 79.4142 20.1978 79.5742 19.9943C79.737 19.7909 79.9404 19.6308 80.1846 19.5142C80.4314 19.3975 80.7203 19.3392 81.0513 19.3392C81.3958 19.3392 81.6969 19.4097 81.9546 19.5508C82.2123 19.6891 82.4144 19.879 82.5609 20.1204C82.7101 20.3592 82.7914 20.6304 82.805 20.9342H82.0889C82.0753 20.7525 82.0238 20.5884 81.9342 20.4419C81.8474 20.2954 81.7281 20.1788 81.5762 20.092C81.427 20.0024 81.252 19.9577 81.0513 19.9577C80.8207 19.9577 80.6267 20.0038 80.4694 20.096C80.3148 20.1855 80.1914 20.3076 80.0991 20.4622C80.0096 20.6141 79.9445 20.7837 79.9038 20.9709C79.8658 21.1553 79.8468 21.3439 79.8468 21.5365V21.7074C79.8468 21.9 79.8658 22.0898 79.9038 22.277C79.9418 22.4642 80.0055 22.6337 80.0951 22.7856C80.1873 22.9376 80.3107 23.0596 80.4653 23.1519C80.6227 23.2414 80.818 23.2861 81.0513 23.2861ZM87.5129 19.4206V23.8232H86.756V19.4206H87.5129ZM88.9899 19.4206V20.0309H85.3075V19.4206H88.9899ZM89.3602 21.6707V21.5771C89.3602 21.2598 89.4063 20.9654 89.4985 20.6942C89.5908 20.4202 89.7237 20.1828 89.8973 19.9821C90.0709 19.7786 90.2811 19.6213 90.528 19.5101C90.7748 19.3962 91.0515 19.3392 91.3581 19.3392C91.6673 19.3392 91.9454 19.3962 92.1922 19.5101C92.4418 19.6213 92.6534 19.7786 92.827 19.9821C93.0033 20.1828 93.1376 20.4202 93.2298 20.6942C93.322 20.9654 93.3682 21.2598 93.3682 21.5771V21.6707C93.3682 21.9881 93.322 22.2824 93.2298 22.5537C93.1376 22.825 93.0033 23.0623 92.827 23.2658C92.6534 23.4665 92.4431 23.6239 92.1963 23.7378C91.9521 23.849 91.6755 23.9046 91.3662 23.9046C91.057 23.9046 90.7789 23.849 90.5321 23.7378C90.2852 23.6239 90.0736 23.4665 89.8973 23.2658C89.7237 23.0623 89.5908 22.825 89.4985 22.5537C89.4063 22.2824 89.3602 21.9881 89.3602 21.6707ZM90.113 21.5771V21.6707C90.113 21.8905 90.1387 22.098 90.1903 22.2933C90.2418 22.4859 90.3191 22.6568 90.4222 22.806C90.528 22.9552 90.6596 23.0732 90.8169 23.16C90.9742 23.2441 91.1573 23.2861 91.3662 23.2861C91.5724 23.2861 91.7528 23.2441 91.9074 23.16C92.0647 23.0732 92.1949 22.9552 92.298 22.806C92.4011 22.6568 92.4784 22.4859 92.5299 22.2933C92.5842 22.098 92.6113 21.8905 92.6113 21.6707V21.5771C92.6113 21.3601 92.5842 21.1553 92.5299 20.9627C92.4784 20.7674 92.3997 20.5952 92.2939 20.446C92.1909 20.2941 92.0607 20.1747 91.9033 20.0879C91.7487 20.0011 91.5669 19.9577 91.3581 19.9577C91.1519 19.9577 90.9702 20.0011 90.8128 20.0879C90.6582 20.1747 90.528 20.2941 90.4222 20.446C90.3191 20.5952 90.2418 20.7674 90.1903 20.9627C90.1387 21.1553 90.113 21.3601 90.113 21.5771ZM95.0649 20.2669V25.516H94.3081V19.4206H94.9998L95.0649 20.2669ZM98.0312 21.5853V21.6707C98.0312 21.9908 97.9933 22.2879 97.9173 22.5618C97.8414 22.8331 97.7301 23.0691 97.5837 23.2699C97.4399 23.4706 97.2622 23.6266 97.0506 23.7378C96.839 23.849 96.5962 23.9046 96.3223 23.9046C96.0429 23.9046 95.796 23.8585 95.5817 23.7663C95.3674 23.674 95.1857 23.5398 95.0365 23.3634C94.8873 23.1871 94.7679 22.9755 94.6784 22.7287C94.5916 22.4818 94.5319 22.2038 94.4993 21.8945V21.4388C94.5319 21.1133 94.5929 20.8217 94.6825 20.564C94.772 20.3063 94.89 20.0865 95.0365 19.9048C95.1857 19.7203 95.366 19.5806 95.5776 19.4857C95.7892 19.388 96.0334 19.3392 96.3101 19.3392C96.5867 19.3392 96.8322 19.3934 97.0465 19.502C97.2608 19.6077 97.4412 19.7597 97.5877 19.9577C97.7342 20.1557 97.8441 20.3931 97.9173 20.6698C97.9933 20.9437 98.0312 21.2489 98.0312 21.5853ZM97.2744 21.6707V21.5853C97.2744 21.3656 97.2514 21.1594 97.2052 20.9668C97.1591 20.7715 97.0872 20.6006 96.9896 20.4541C96.8946 20.3049 96.7726 20.1883 96.6234 20.1042C96.4742 20.0174 96.2965 19.974 96.0903 19.974C95.9004 19.974 95.735 20.0065 95.5939 20.0716C95.4556 20.1367 95.3376 20.2249 95.2399 20.3361C95.1423 20.4446 95.0622 20.5694 94.9998 20.7104C94.9402 20.8488 94.8954 20.9926 94.8656 21.1418V22.1956C94.9198 22.3855 94.9958 22.5646 95.0934 22.7327C95.1911 22.8982 95.3213 23.0325 95.484 23.1356C95.6468 23.2359 95.8516 23.2861 96.0985 23.2861C96.3019 23.2861 96.4769 23.2441 96.6234 23.16C96.7726 23.0732 96.8946 22.9552 96.9896 22.806C97.0872 22.6568 97.1591 22.4859 97.2052 22.2933C97.2514 22.098 97.2744 21.8905 97.2744 21.6707ZM101.836 19.4206V20.0431H99.8013V23.8232H99.0485V19.4206H101.836ZM102.21 21.6707V21.5771C102.21 21.2598 102.256 20.9654 102.348 20.6942C102.441 20.4202 102.574 20.1828 102.747 19.9821C102.921 19.7786 103.131 19.6213 103.378 19.5101C103.625 19.3962 103.901 19.3392 104.208 19.3392C104.517 19.3392 104.795 19.3962 105.042 19.5101C105.292 19.6213 105.503 19.7786 105.677 19.9821C105.853 20.1828 105.988 20.4202 106.08 20.6942C106.172 20.9654 106.218 21.2598 106.218 21.5771V21.6707C106.218 21.9881 106.172 22.2824 106.08 22.5537C105.988 22.825 105.853 23.0623 105.677 23.2658C105.503 23.4665 105.293 23.6239 105.046 23.7378C104.802 23.849 104.525 23.9046 104.216 23.9046C103.907 23.9046 103.629 23.849 103.382 23.7378C103.135 23.6239 102.924 23.4665 102.747 23.2658C102.574 23.0623 102.441 22.825 102.348 22.5537C102.256 22.2824 102.21 21.9881 102.21 21.6707ZM102.963 21.5771V21.6707C102.963 21.8905 102.989 22.098 103.04 22.2933C103.092 22.4859 103.169 22.6568 103.272 22.806C103.378 22.9552 103.509 23.0732 103.667 23.16C103.824 23.2441 104.007 23.2861 104.216 23.2861C104.422 23.2861 104.603 23.2441 104.757 23.16C104.915 23.0732 105.045 22.9552 105.148 22.806C105.251 22.6568 105.328 22.4859 105.38 22.2933C105.434 22.098 105.461 21.8905 105.461 21.6707V21.5771C105.461 21.3601 105.434 21.1553 105.38 20.9627C105.328 20.7674 105.25 20.5952 105.144 20.446C105.041 20.2941 104.911 20.1747 104.753 20.0879C104.599 20.0011 104.417 19.9577 104.208 19.9577C104.002 19.9577 103.82 20.0011 103.663 20.0879C103.508 20.1747 103.378 20.2941 103.272 20.446C103.169 20.5952 103.092 20.7674 103.04 20.9627C102.989 21.1553 102.963 21.3601 102.963 21.5771ZM109.229 21.8864H107.785L107.777 21.2842H108.957C109.19 21.2842 109.384 21.2611 109.538 21.215C109.696 21.1689 109.814 21.0997 109.892 21.0075C109.971 20.9153 110.01 20.8013 110.01 20.6657C110.01 20.5599 109.987 20.4677 109.941 20.389C109.898 20.3076 109.831 20.2412 109.742 20.1896C109.652 20.1354 109.541 20.096 109.408 20.0716C109.278 20.0445 109.125 20.0309 108.948 20.0309H107.984V23.8232H107.231V19.4206H108.948C109.228 19.4206 109.479 19.445 109.701 19.4938C109.926 19.5426 110.118 19.6172 110.275 19.7176C110.435 19.8153 110.557 19.9401 110.641 20.092C110.725 20.2439 110.767 20.4229 110.767 20.6291C110.767 20.762 110.74 20.8881 110.686 21.0075C110.632 21.1268 110.552 21.2326 110.446 21.3249C110.34 21.4171 110.21 21.4931 110.055 21.5527C109.901 21.6097 109.723 21.6463 109.522 21.6626L109.229 21.8864ZM109.229 23.8232H107.512L107.886 23.2129H109.229C109.438 23.2129 109.612 23.1871 109.75 23.1356C109.888 23.0813 109.991 23.0054 110.059 22.9077C110.13 22.8073 110.165 22.688 110.165 22.5496C110.165 22.4113 110.13 22.2933 110.059 22.1956C109.991 22.0953 109.888 22.0193 109.75 21.9678C109.612 21.9135 109.438 21.8864 109.229 21.8864H108.086L108.094 21.2842H109.522L109.795 21.512C110.036 21.531 110.241 21.5907 110.409 21.6911C110.577 21.7914 110.705 21.9189 110.792 22.0736C110.878 22.2255 110.922 22.391 110.922 22.57C110.922 22.7762 110.883 22.9579 110.804 23.1152C110.728 23.2726 110.617 23.4041 110.47 23.5099C110.324 23.613 110.146 23.6917 109.937 23.7459C109.728 23.7975 109.492 23.8232 109.229 23.8232Z" fill="#232323"/>
</svg>
