<svg width="40" height="41" viewBox="0 0 40 41" fill="none" xmlns="http://www.w3.org/2000/svg">
<path fill-rule="evenodd" clip-rule="evenodd" d="M13.8961 0.552734H26.1348C37.3135 0.552734 39.9524 3.21234 39.9524 14.3913V26.6298C39.9524 37.8086 37.2928 40.4476 26.1139 40.4476H13.8753C2.69654 40.4476 0.0576172 37.7878 0.0576172 26.609V14.3704C0.0576172 3.21234 2.71723 0.552734 13.8961 0.552734ZM16.6801 15.1809C16.6801 13.3448 18.1686 11.8564 20.0047 11.8564C21.8408 11.8564 23.3292 13.3448 23.3292 15.1809C23.3292 17.017 21.8408 18.5055 20.0047 18.5055C18.1686 18.5055 16.6801 17.017 16.6801 15.1809ZM20.0047 8.5318C16.3325 8.5318 13.3556 11.5087 13.3556 15.1809C13.3556 18.8532 16.3325 21.8301 20.0047 21.8301C23.6769 21.8301 26.6538 18.8532 26.6538 15.1809C26.6538 11.5087 23.6769 8.5318 20.0047 8.5318ZM14.7264 22.1943C14.0096 21.6208 12.9635 21.7371 12.39 22.4539C11.8165 23.1708 11.9327 24.2169 12.6496 24.7904C14.3225 26.1287 16.5207 26.8608 18.7125 27.079L13.8836 31.5859C13.2125 32.2123 13.1762 33.2642 13.8026 33.9354C14.429 34.6065 15.4809 34.6428 16.152 34.0164L20.0047 30.4206L23.8573 34.0164C24.5284 34.6428 25.5803 34.6065 26.2067 33.9354C26.8331 33.2642 26.7968 32.2123 26.1257 31.5859L21.3186 27.0993C23.5651 26.9092 25.812 26.1691 27.4257 24.7348C28.1118 24.1248 28.1736 23.0742 27.5637 22.388C26.9538 21.7018 25.9031 21.64 25.217 22.25C24.1241 23.2214 22.2463 23.8248 20.1293 23.8248C18.0243 23.8248 16.016 23.226 14.7264 22.1943Z" fill="#232323"/>
</svg>
