<svg width="21" height="20" viewBox="0 0 21 20" fill="none" xmlns="http://www.w3.org/2000/svg">
<path d="M9.85647 0.547222C10.0946 -0.0251942 10.9054 -0.0251929 11.1435 0.547223L13.3783 5.92027C13.4787 6.16159 13.7056 6.32647 13.9661 6.34736L19.7668 6.81239C20.3848 6.86194 20.6353 7.63314 20.1645 8.03645L15.745 11.8222C15.5465 11.9922 15.4599 12.259 15.5205 12.5133L16.8707 18.1737C17.0146 18.7767 16.3585 19.2534 15.8295 18.9302L10.8633 15.8969C10.6403 15.7607 10.3597 15.7607 10.1367 15.8969L5.17053 18.9302C4.64146 19.2534 3.98543 18.7767 4.12928 18.1737L5.47951 12.5133C5.54015 12.259 5.45347 11.9922 5.25498 11.8222L0.835485 8.03645C0.364656 7.63314 0.615236 6.86194 1.23321 6.81239L7.03387 6.34736C7.29439 6.32647 7.52133 6.16159 7.6217 5.92027L9.85647 0.547222Z" fill="#F1D62B"/>
</svg>
