<svg width="41" height="41" viewBox="0 0 41 41" fill="none" xmlns="http://www.w3.org/2000/svg">
<path d="M14.9679 0.502082C3.60521 0.47676 0.966234 3.29456 1.00453 14.4653C0.852804 16.8529 1.1532 21.4376 1.01181 24.4569C0.413796 38.3332 4.20824 41.0667 17.0626 40.4109H26.7791C30.926 40.4109 38.1593 40.6994 40.0021 34.4267C40.853 31.5305 41.0074 24.9478 40.9995 20.4635C40.3134 8.42361 43.2022 0.0894935 26.9365 0.51562C26.9365 0.51562 17.5875 0.501864 14.9679 0.502082ZM27.3944 30.7413C27.3197 30.9275 27.2061 31.0956 27.0612 31.2342C26.9163 31.3729 26.7434 31.479 26.5541 31.5454C26.3648 31.6118 26.1636 31.637 25.9638 31.6192C25.764 31.6015 25.5703 31.5412 25.3957 31.4425L19.9806 27.2348L16.5051 30.4412C16.4245 30.5008 16.3302 30.5391 16.2308 30.5527C16.1315 30.5662 16.0303 30.5546 15.9366 30.5188L16.6029 24.5576L16.6242 24.5746L16.6378 24.4569C16.6378 24.4569 26.3821 15.5852 26.7791 15.2073C27.181 14.8302 27.0484 14.7485 27.0484 14.7485C27.0713 14.2886 26.3272 14.7485 26.3272 14.7485L13.4162 23.0546L8.03944 21.2235C8.03944 21.2235 7.21362 20.9273 7.13582 20.276C7.05404 19.6297 8.06635 19.2786 8.06635 19.2786L29.444 10.786C29.444 10.786 31.2013 10.003 31.2013 11.2996L27.3944 30.7413Z" fill="#232323"/>
</svg>
