<svg width="41" height="41" viewBox="0 0 41 41" fill="none" xmlns="http://www.w3.org/2000/svg">
<path d="M26.2397 0.552734H14.0011C2.82221 0.552734 0.162598 3.21234 0.162598 14.3704V26.609C0.162598 37.7878 2.80152 40.4476 13.9803 40.4476H26.2189C37.3978 40.4476 40.0574 37.8086 40.0574 26.6298V14.3913C40.0574 3.21234 37.4185 0.552734 26.2397 0.552734ZM32.3693 29.0193H29.4604C28.3591 29.0193 28.0266 28.1258 26.0527 26.1519C24.328 24.4896 23.6008 24.2818 23.1645 24.2818C22.5619 24.2818 22.3956 24.448 22.3956 25.2792V27.8973C22.3956 28.6038 22.1671 29.0193 20.3178 29.0193C18.5234 28.8987 16.7832 28.3536 15.2406 27.4288C13.6981 26.504 12.3973 25.226 11.4454 23.7C9.18552 20.8872 7.61317 17.586 6.85334 14.0588C6.85334 13.6224 7.01952 13.2276 7.85071 13.2276H10.7597C11.5077 13.2276 11.7779 13.5601 12.0687 14.3289C13.4816 18.4846 15.892 22.1001 16.8686 22.1001C17.2426 22.1001 17.4088 21.9339 17.4088 20.9988V16.7184C17.2841 14.7653 16.2452 14.599 16.2452 13.8926C16.2589 13.7062 16.3447 13.5325 16.4843 13.4083C16.624 13.2842 16.8065 13.2193 16.9932 13.2276H21.5646C22.1879 13.2276 22.3956 13.5393 22.3956 14.2873V20.0638C22.3956 20.6872 22.6658 20.8949 22.8528 20.8949C23.2268 20.8949 23.5177 20.6872 24.2033 20.0015C25.6768 18.2046 26.8808 16.2027 27.7773 14.0588C27.8688 13.8008 28.0423 13.5799 28.2711 13.4298C28.5 13.2797 28.7718 13.2087 29.0448 13.2276H31.9538C32.8265 13.2276 33.0135 13.6639 32.8265 14.2873C31.768 16.6577 30.4584 18.9077 28.9202 20.9988C28.6085 21.4767 28.4838 21.726 28.9202 22.2871C29.211 22.7234 30.2292 23.5753 30.9149 24.3857C31.9123 25.3805 32.7404 26.5316 33.3667 27.7934C33.616 28.6038 33.2005 29.0193 32.3693 29.0193Z" fill="#232323"/>
</svg>
