<svg width="174" height="189" viewBox="0 0 174 189" fill="none" xmlns="http://www.w3.org/2000/svg">
<circle cx="86.7963" cy="102.13" r="86.7963" fill="#333333"/>
<path d="M124.451 148.34C124.919 153.961 126.117 156.288 128.433 160.285L99.7656 180.988C97.3767 179.396 97.3767 177.803 94.9879 175.414C91.8027 172.229 89.9798 172.997 84.636 169.044C78.2656 165.062 74.8948 161.013 73.4883 158.692C73.0925 157.603 72.7643 157.073 71.8953 156.303C69.5064 154.71 70.533 152.535 68.7101 150.729C66.4025 147.85 67.5135 146.747 67.1175 141.173C66.9191 138.382 67.9138 137.192 70.3031 136.396C67.8019 135.786 67.1567 134.689 66.3216 132.414C65.6346 128.009 66.9359 126.046 70.3031 122.859C67.1175 121.266 64.5564 117.365 64.7291 113.303C64.7291 110.914 66.606 108.317 69.5068 107.729C70.3361 107.561 70.8429 107.537 71.8957 107.729C70.6912 105.261 70.3884 103.666 70.3031 100.562C69.668 97.6801 70.2989 96.2728 73.4879 94.1919C75.0893 92.9268 76.5325 93.1222 79.0619 93.3956C78.7653 85.4776 78.4722 81.1573 69.5068 81.4511L39.2471 83.0437C32.1677 83.0437 32.0815 82.2667 31.3129 75.3397L31.2841 75.0807L25.7101 14.5622C24.9799 8.23429 25.7099 5.803 32.0804 5.80296L131.617 1.02518C136.399 0.747586 137.041 2.7582 137.192 7.39555L139.58 70.303C139.777 75.1353 138.743 76.3088 135.599 76.6733L98.173 79.0622C94.1919 79.8333 92.946 84.6448 94.1919 90.2104C95.4989 88.2349 97.3771 87.8215 98.9697 88.6178C100.878 90.9139 100.91 92.4052 101.359 94.9882C102.951 96.5808 102.877 97.6879 104.544 99.766C106.489 101.921 106.791 102.661 106.933 103.747C107.729 106.136 110.177 110.686 113.303 114.099C119.673 119.673 120.47 124.451 120.47 126.044C120.47 127.636 120.957 128.235 121.266 129.229C124.252 138.834 124.497 142.444 124.451 148.34Z" fill="#F1D62B"/>
<path d="M94.1919 90.2104C95.4989 88.2349 97.3771 87.8215 98.9697 88.6178C100.878 90.9139 100.91 92.4052 101.359 94.9882C102.951 96.5808 102.877 97.6879 104.544 99.766C106.489 101.921 106.791 102.661 106.933 103.747C107.729 106.136 110.177 110.686 113.303 114.099C119.673 119.673 120.47 124.451 120.47 126.044C120.47 127.636 120.957 128.235 121.266 129.229C124.252 138.834 124.497 142.444 124.451 148.34C124.919 153.961 126.117 156.288 128.433 160.285L99.7656 180.988C97.3767 179.396 97.3767 177.803 94.9879 175.414C91.8027 172.229 89.9798 172.997 84.636 169.044C78.2656 165.062 74.8948 161.013 73.4883 158.692C73.0925 157.603 72.7643 157.073 71.8953 156.303C69.5064 154.71 70.533 152.535 68.7101 150.729C66.4025 147.85 67.5135 146.747 67.1175 141.173C66.9191 138.382 67.9138 137.192 70.3031 136.396M94.1919 90.2104V100.562C94.1919 103.371 94.9258 105.568 96.01 107.729M94.1919 90.2104C92.946 84.6448 94.1919 79.8333 98.173 79.0622L135.599 76.6733C138.743 76.3088 139.777 75.1353 139.58 70.303L137.192 7.39555C137.041 2.7582 136.399 0.747586 131.617 1.02518L32.0804 5.80296C25.7099 5.803 24.9799 8.23429 25.7101 14.5622L31.2841 75.0807C32.0804 82.2474 32.0804 83.0437 39.2471 83.0437L69.5068 81.4511C78.4722 81.1573 78.7653 85.4776 79.0619 93.3956M102.155 119.673C102.791 121.174 103.556 122.051 105.34 123.655M102.155 119.673C101.921 120.99 101.939 122.059 102.155 124.451M102.155 119.673C100.218 114.347 97.6923 111.082 96.01 107.729M96.01 107.729C99.1179 125.098 99.5967 132.72 99.766 145.155C98.9289 149.491 97.2306 151.041 91.0068 151.525M91.0068 151.525C91.7105 149.665 92.085 148.621 90.2105 146.747M91.0068 151.525C89.1825 153.198 87.9481 153.487 85.4323 153.118C83.9586 152.817 83.1377 152.663 81.4508 151.525C80.7601 151.113 80.1652 150.794 79.5703 150.553M90.2105 146.747C89.7011 146.238 89.2935 145.81 88.952 145.445M90.2105 146.747L88.952 145.445M70.3031 136.396C72.2019 136.355 72.7685 136.6 73.4883 137.192C77.3822 139.574 79.663 140.569 83.8401 141.97C87.1848 143.308 87.1578 143.522 88.952 145.445M70.3031 136.396C67.8019 135.786 67.1567 134.689 66.3216 132.414C65.6346 128.009 66.9359 126.046 70.3031 122.859M88.952 145.445C90.8988 146.239 91.8616 146.309 93.3957 145.951C96.01 146.747 99.033 142.605 97.3771 139.581C96.3478 137.649 95.6986 136.55 88.6179 133.21C87.5766 132.712 86.6587 132.269 85.8245 131.859M70.3031 122.859C73.4528 123.604 75.1808 125.069 78.266 127.636C80.9268 129.334 82.8405 130.39 85.8245 131.859M70.3031 122.859C67.1175 121.266 64.5564 117.365 64.7291 113.303C64.7291 110.914 66.606 108.317 69.5068 107.729C70.3361 107.561 70.8429 107.537 71.8957 107.729M71.8957 107.729C75.9827 111.275 78.8603 114.49 81.4508 114.896M71.8957 107.729C70.6912 105.261 70.3884 103.666 70.3031 100.562C69.668 97.6801 70.2989 96.2728 73.4879 94.1919C75.0893 92.9268 76.5325 93.1222 79.0619 93.3956M85.8245 131.859C87.2096 132.167 88.0161 132.296 89.9053 131.859C94.192 131.859 95.2054 127.66 94.1919 125.247C93.6202 123.276 93.4308 122.187 88.6179 119.673L81.4508 114.896M81.4508 114.896C85.4323 114.896 87.6485 111.804 86.2286 107.729C85.2402 104.737 84.5724 103.085 81.4508 100.562C81.4132 98.919 81.0188 97.9044 79.0619 95.7844V93.3956M70.3031 147.544C72.447 149.379 73.6619 149.966 75.8767 149.933C77.4622 149.945 78.516 150.126 79.5703 150.553M79.5703 150.553C76.7716 153.281 75.5683 153.854 73.4879 154.71" stroke="#333333"/>
<path d="M124.452 148.34C124.92 153.961 126.118 156.288 128.434 160.284C133.398 165.249 132.677 168.319 136.963 172.87C125.814 181.759 110.685 185.741 104.767 186.961C102.874 184.216 101.511 182.335 99.7665 180.988C97.3776 179.396 97.3776 177.803 94.9887 175.414C91.8035 172.229 89.9807 172.997 84.6369 169.044C78.2665 165.062 74.8957 161.013 73.4891 158.692C73.0934 157.603 72.7652 157.073 71.8961 156.303C69.5072 154.71 70.5338 152.535 68.7109 150.729C66.4033 147.85 67.5144 146.747 67.1183 141.173C66.92 138.382 67.9146 137.192 70.3039 136.396C67.8028 135.786 67.1576 134.689 66.3225 132.414C65.6355 128.009 66.9368 126.046 70.3039 122.858C67.1184 121.266 64.5573 117.365 64.7299 113.303C64.7299 110.914 66.6069 108.316 69.5077 107.729C70.3369 107.561 70.8438 107.537 71.8966 107.729C70.6921 105.261 70.3893 103.666 70.3039 100.562C69.6688 97.68 70.2997 96.2727 73.4887 94.1918C75.0902 92.9267 76.5334 93.1221 79.0628 93.3955V95.7844C81.0197 97.9044 81.414 98.9189 81.4517 100.562C84.5732 103.085 85.2411 104.737 86.2295 107.729C86.3804 108.162 86.4902 108.584 86.5612 108.992C87.126 112.24 85.2351 114.625 82.0182 114.874C81.8336 114.888 81.6447 114.896 81.4517 114.896L88.6188 119.673C93.4316 122.187 93.6211 123.276 94.1928 125.247C95.2063 127.66 94.1928 131.858 89.9062 131.858C88.017 132.296 87.2104 132.167 85.8254 131.858C86.6596 132.269 87.5775 132.712 88.6188 133.21C95.6995 136.55 96.3487 137.649 97.378 139.581C99.0339 142.605 96.0109 146.747 93.3965 145.951C91.8625 146.309 90.8997 146.239 88.9528 145.444L90.2113 146.747C90.544 147.08 90.8059 147.386 91.0076 147.676C91.9426 149.017 91.5865 149.995 91.0076 151.525C97.2315 151.041 98.9298 149.49 99.7669 145.155C99.5976 132.72 99.1188 125.098 96.0109 107.729C94.9267 105.568 94.1928 103.371 94.1928 100.562V90.2103C95.4998 88.2348 97.378 87.8214 98.9706 88.6177C100.879 90.9138 100.911 92.4051 101.359 94.9881C102.952 96.5807 102.878 97.6878 104.545 99.7659C106.49 101.921 106.792 102.661 106.934 103.747C107.73 106.136 110.178 110.686 113.304 114.099C119.674 119.673 120.471 124.451 120.471 126.044C120.471 127.636 120.958 128.234 121.267 129.229C124.253 138.834 124.498 142.444 124.452 148.34Z" fill="#FFD88D"/>
<path d="M101.359 94.9881C102.952 96.5807 102.878 97.6878 104.545 99.7659C106.49 101.921 106.792 102.661 106.934 103.747C107.73 106.136 110.178 110.686 113.304 114.099C119.674 119.673 120.471 124.451 120.471 126.044C120.471 127.636 120.958 128.234 121.267 129.229C124.253 138.834 124.498 142.444 124.452 148.34C124.92 153.961 126.118 156.288 128.434 160.284C133.398 165.249 132.677 168.319 136.963 172.87C125.814 181.759 110.685 185.741 104.767 186.961C102.874 184.216 101.511 182.335 99.7665 180.988C97.3776 179.396 97.3776 177.803 94.9887 175.414C91.8035 172.229 89.9807 172.997 84.6369 169.044C78.2665 165.062 74.8957 161.013 73.4891 158.692C73.0934 157.603 72.7652 157.073 71.8961 156.303C69.5072 154.71 70.5338 152.535 68.7109 150.729C66.4033 147.85 67.5144 146.747 67.1183 141.173C66.92 138.382 67.9146 137.192 70.3039 136.396M101.359 94.9881C100.911 92.4051 100.879 90.9138 98.9706 88.6177M101.359 94.9881C99.7925 95.2116 99.1285 93.1232 97.9441 89.3888C98.2459 88.8727 98.4684 88.687 98.9706 88.6177M98.9706 88.6177C97.378 87.8214 95.4998 88.2348 94.1928 90.2103V100.562C94.1928 103.371 94.9267 105.568 96.0109 107.729M102.156 119.673C102.792 121.174 103.557 122.051 105.341 123.655M102.156 119.673C101.922 120.99 101.94 122.059 102.156 124.451M102.156 119.673C100.219 114.347 97.6931 111.082 96.0109 107.729M96.0109 107.729C99.1188 125.098 99.5976 132.72 99.7669 145.155C98.9298 149.49 97.2315 151.041 91.0076 151.525M91.0076 151.525C89.9109 152.531 89.4656 152.93 88.3886 153.093M91.0076 151.525C91.5865 149.995 91.9426 149.017 91.0076 147.676M90.2113 146.747C89.7019 146.238 89.2944 145.81 88.9528 145.444M90.2113 146.747L88.9528 145.444M90.2113 146.747C90.544 147.08 90.8059 147.386 91.0076 147.676M70.3039 136.396C72.2027 136.355 72.7693 136.6 73.4891 137.192C77.3831 139.574 79.6639 140.569 83.841 141.97C87.1857 143.307 87.1587 143.522 88.9528 145.444M70.3039 136.396C67.8028 135.786 67.1576 134.689 66.3225 132.414C65.6355 128.009 66.9368 126.046 70.3039 122.858M88.9528 145.444C90.8997 146.239 91.8625 146.309 93.3965 145.951M93.3965 145.951C96.0109 146.747 99.0339 142.605 97.378 139.581M93.3965 145.951C90.7774 144.333 87.3284 143.488 88.9528 139.27C90.7774 136.37 92.677 137.206 97.378 139.581M97.378 139.581C96.3487 137.649 95.6995 136.55 88.6188 133.21C87.5775 132.712 86.6596 132.269 85.8254 131.858M70.3039 122.858C73.4536 123.604 75.1816 125.069 78.2669 127.636C80.9277 129.333 82.8414 130.389 85.8254 131.858M70.3039 122.858C67.1184 121.266 64.5573 117.365 64.7299 113.303C64.7299 110.914 66.6069 108.316 69.5077 107.729C70.3369 107.561 70.8438 107.537 71.8966 107.729M71.8966 107.729C75.9836 111.275 78.8612 114.49 81.4517 114.896M71.8966 107.729C70.6921 105.261 70.3893 103.666 70.3039 100.562C69.6688 97.68 70.2997 96.2727 73.4887 94.1918C75.0902 92.9267 76.5334 93.1221 79.0628 93.3955V95.7844C81.0197 97.9044 81.414 98.9189 81.4517 100.562C84.5732 103.085 85.2411 104.737 86.2295 107.729C86.3804 108.162 86.4902 108.584 86.5612 108.992M85.8254 131.858C87.2104 132.167 88.017 132.296 89.9062 131.858M89.9062 131.858C94.1928 131.858 95.2063 127.66 94.1928 125.247M89.9062 131.858C87.5923 130.796 83.7851 127.586 85.2034 124.426C86.9703 121.215 90.1977 122.462 94.1928 125.247M94.1928 125.247C93.6211 123.276 93.4316 122.187 88.6188 119.673L81.4517 114.896M81.4517 114.896C81.6447 114.896 81.8336 114.888 82.0182 114.874M70.3039 147.544C72.4479 149.379 73.6628 149.966 75.8776 149.933C77.4631 149.945 78.5169 150.126 79.5712 150.553M79.5712 150.553C80.166 150.794 80.761 151.113 81.4517 151.525C83.1385 152.663 83.9595 152.817 85.4332 153.118C86.4364 153.265 87.6742 153.201 88.3886 153.093M79.5712 150.553C76.7725 153.281 75.5691 153.854 73.4887 154.71M88.3886 153.093C85.9997 152.296 83.4027 150.237 84.4071 147.676C85.135 145.819 87.5748 145.808 91.0076 147.676M82.0182 114.874C85.2351 114.625 87.126 112.24 86.5612 108.992M82.0182 114.874C77.9577 110.588 77.2404 108.992 79.6293 106.111C81.2219 104.518 83.6125 106.492 86.5612 108.992" stroke="#333333" stroke-width="0.5"/>
<path d="M98.9687 88.6177C100.877 90.9137 100.909 92.405 101.358 94.988C99.7906 95.2115 99.1266 93.1231 97.9423 89.3888C98.2441 88.8727 98.4665 88.6869 98.9687 88.6177Z" fill="#F8D7D0"/>
<path d="M97.3761 139.581C99.032 142.605 96.009 146.747 93.3947 145.951C90.7756 144.333 87.3266 143.488 88.951 139.27C90.7756 136.37 92.6752 137.206 97.3761 139.581Z" fill="#F8D7D0"/>
<path d="M94.191 125.247C95.2045 127.66 94.191 131.858 89.9043 131.858C87.5904 130.796 83.4346 127.636 85.2015 124.426C86.9684 121.215 90.1958 122.461 94.191 125.247Z" fill="#F8D7D0"/>
<path d="M88.3867 153.092C89.4637 152.929 89.909 152.531 91.0058 151.525C91.5846 149.995 91.9407 149.017 91.0058 147.676C87.5729 145.808 85.1331 145.662 84.4052 147.518C83.4009 150.08 85.9978 152.296 88.3867 153.092Z" fill="#F8D7D0"/>
<path d="M86.5593 108.992C87.1242 112.24 85.2332 114.625 82.0163 114.874C77.9558 110.588 77.2385 108.992 79.6274 106.111C81.22 104.518 83.6106 106.492 86.5593 108.992Z" fill="#F8D7D0"/>
<path d="M98.9687 88.6177C100.877 90.9137 100.909 92.405 101.358 94.988C99.7906 95.2115 99.1266 93.1231 97.9423 89.3888C98.2441 88.8727 98.4665 88.6869 98.9687 88.6177Z" stroke="#333333" stroke-width="0.159259"/>
<path d="M97.3761 139.581C99.032 142.605 96.009 146.747 93.3947 145.951C90.7756 144.333 87.3266 143.488 88.951 139.27C90.7756 136.37 92.6752 137.206 97.3761 139.581Z" stroke="#333333" stroke-width="0.159259"/>
<path d="M94.191 125.247C95.2045 127.66 94.191 131.858 89.9043 131.858C87.5904 130.796 83.4346 127.636 85.2015 124.426C86.9684 121.215 90.1958 122.461 94.191 125.247Z" stroke="#333333" stroke-width="0.159259"/>
<path d="M88.3867 153.092C89.4637 152.929 89.909 152.531 91.0058 151.525C91.5846 149.995 91.9407 149.017 91.0058 147.676C87.5729 145.808 85.1331 145.662 84.4052 147.518C83.4009 150.08 85.9978 152.296 88.3867 153.092Z" stroke="#333333" stroke-width="0.159259"/>
<path d="M86.5593 108.992C87.1242 112.24 85.2332 114.625 82.0163 114.874C77.9558 110.588 77.2385 108.992 79.6274 106.111C81.22 104.518 83.6106 106.492 86.5593 108.992Z" stroke="#333333" stroke-width="0.159259"/>
</svg>
