<svg width="9" height="8" viewBox="0 0 9 8" fill="none" xmlns="http://www.w3.org/2000/svg">
<path fill-rule="evenodd" clip-rule="evenodd" d="M4.8604 7.72337L4.56155 5.16297C4.54732 5.04107 4.43696 4.95379 4.31506 4.96801L1.66638 5.27717C1.54447 5.2914 1.43412 5.20411 1.41989 5.08221L0.945855 1.02089C0.931627 0.898986 1.01891 0.78863 1.14082 0.774402L3.87696 0.455041L3.75232 1.71911L4.15575 1.76115C4.19901 1.7025 4.24439 1.657 4.29188 1.62465C4.34053 1.59217 4.39129 1.57284 4.44417 1.56666C4.54304 1.55512 4.63139 1.58326 4.70922 1.65108C4.78807 1.71761 4.83434 1.80951 4.84804 1.92677C4.86213 2.04748 4.83631 2.15071 4.77058 2.23645C4.70485 2.3222 4.61853 2.37132 4.51162 2.3838C4.43459 2.39279 4.36155 2.38093 4.29247 2.34821C4.22441 2.31421 4.16621 2.25983 4.11786 2.18507L3.61088 2.24427C3.68414 2.45246 3.80554 2.60899 3.9751 2.71388C4.14466 2.81876 4.3375 2.85859 4.55362 2.83335C4.79504 2.80516 4.9898 2.69677 5.13791 2.50819C5.28703 2.31831 5.34717 2.09979 5.3183 1.85263C5.28971 1.60777 5.18984 1.41609 5.01869 1.2776C4.84855 1.13782 4.64852 1.08136 4.41861 1.1082C4.39331 1.11116 4.36714 1.11654 4.34009 1.12436C4.3129 1.13103 4.28541 1.14007 4.25761 1.15147L4.30711 0.677253L5.13482 0.580606L5.10344 0.311887L7.76253 0.00151955C7.88443 -0.0127089 7.99479 0.0745782 8.00902 0.196481L8.48305 4.2578C8.49728 4.3797 8.40999 4.49006 8.28809 4.50428L5.57149 4.82136C5.44959 4.83559 5.3623 4.94595 5.37653 5.06785L5.67538 7.62825C5.68961 7.75015 5.60232 7.86051 5.48042 7.87473L5.10688 7.91833C4.98498 7.93256 4.87462 7.84527 4.8604 7.72337ZM5.10344 0.311887L5.08287 0.135712L3.89476 0.274441L3.87696 0.455041L5.10344 0.311887Z" fill="#515151"/>
</svg>
