<svg width="17" height="17" viewBox="0 0 17 17" fill="none" xmlns="http://www.w3.org/2000/svg">
<path d="M8.61795 3.66022C8.35368 4.1899 8.2136 4.1794 7.95129 3.66022C6.95129 1.66024 4.05429 1.57574 2.61793 3.32691C1.18157 5.07808 1.61703 7.99358 2.61795 8.99355C4.36819 10.8306 5.72776 11.992 7.95129 13.9936C8.2038 14.1942 8.3417 14.1897 8.61795 13.9936C8.8942 13.7974 13.1635 9.92673 13.9513 8.99355C14.9504 7.99358 15.6968 5.08252 13.9504 3.32691C12.9504 1.99358 10.0301 1.41585 8.61795 3.66022Z" fill="white" stroke="#515151" stroke-width="0.0666667" stroke-linecap="round" stroke-linejoin="round"/>
<path d="M8.61795 3.66022C8.35368 4.1899 8.2136 4.1794 7.95129 3.66022C6.95129 1.66024 4.05429 1.57574 2.61793 3.32691C1.18157 5.07808 1.61703 7.99358 2.61795 8.99355C4.36819 10.8306 5.72776 11.992 7.95129 13.9936C8.2038 14.1942 8.3417 14.1897 8.61795 13.9936C8.8942 13.7974 13.1635 9.92673 13.9513 8.99355C14.9504 7.99358 15.6968 5.08252 13.9504 3.32691C12.9504 1.99358 10.0301 1.41585 8.61795 3.66022Z" fill="white"/>
<path d="M7.95129 3.66022L7.65314 3.80929L7.65377 3.81054L7.95129 3.66022ZM8.61795 3.66022L8.33582 3.4827C8.32997 3.492 8.32458 3.50158 8.31968 3.5114L8.61795 3.66022ZM13.9504 3.32691L13.6837 3.52691C13.693 3.53929 13.7032 3.55102 13.7141 3.56199L13.9504 3.32691ZM13.9513 8.99355L13.7155 8.75795C13.7089 8.76454 13.7026 8.7714 13.6966 8.77852L13.9513 8.99355ZM8.61795 13.9936L8.81092 14.2653L8.81092 14.2653L8.61795 13.9936ZM7.95129 13.9936L7.72827 14.2413C7.73336 14.2459 7.73859 14.2503 7.74395 14.2546L7.95129 13.9936ZM2.61795 8.99355L2.85936 8.76355L2.85354 8.75774L2.61795 8.99355ZM2.61793 3.32691L2.87566 3.53831L2.87566 3.53831L2.61793 3.32691ZM7.65377 3.81054C7.7218 3.9452 7.79316 4.07039 7.8717 4.16571C7.94279 4.25198 8.07705 4.38421 8.27955 4.38685C8.48487 4.38952 8.62231 4.25778 8.69544 4.16986C8.77535 4.0738 8.84749 3.9468 8.91622 3.80904L8.31968 3.5114C8.28914 3.57262 8.26222 3.62232 8.23836 3.66209C8.21417 3.70241 8.19573 3.72812 8.18292 3.74352C8.16932 3.75987 8.16888 3.7563 8.18302 3.74744C8.19097 3.74246 8.20428 3.73534 8.22279 3.72958C8.24177 3.72368 8.26399 3.71992 8.28822 3.72024C8.33902 3.7209 8.37432 3.73872 8.38929 3.74843C8.40174 3.75652 8.4003 3.75887 8.38621 3.74176C8.3729 3.72562 8.35424 3.69941 8.33001 3.65914C8.30609 3.61939 8.27923 3.57013 8.2488 3.5099L7.65377 3.81054ZM8.90008 3.83774C9.53488 2.82885 10.4987 2.45757 11.4289 2.48512C12.3777 2.51321 13.255 2.95521 13.6837 3.52691L14.2171 3.12691C13.6458 2.36528 12.563 1.85174 11.4486 1.81874C10.3156 1.78519 9.11319 2.24722 8.33582 3.4827L8.90008 3.83774ZM13.7141 3.56199C14.4994 4.35143 14.7356 5.41043 14.6483 6.41473C14.5601 7.42983 14.1464 8.32668 13.7155 8.75795L14.1871 9.22915C14.7553 8.66045 15.2143 7.60178 15.3125 6.47246C15.4116 5.33233 15.1478 4.058 14.1867 3.09183L13.7141 3.56199ZM13.6966 8.77852C13.3194 9.22534 12.0743 10.4095 10.8666 11.5251C10.2675 12.0785 9.68454 12.6088 9.23443 13.0127C9.00929 13.2147 8.81798 13.3846 8.67481 13.5096C8.60313 13.5723 8.54432 13.623 8.49975 13.6606C8.47744 13.6794 8.45947 13.6943 8.44571 13.7054C8.43067 13.7176 8.42476 13.7219 8.42498 13.7218L8.81092 14.2653C8.86265 14.2286 8.97505 14.1326 9.11343 14.0117C9.25969 13.8839 9.45339 13.7119 9.67966 13.5089C10.1323 13.1027 10.7177 12.5702 11.319 12.0148C12.512 10.9127 13.7954 9.69494 14.206 9.20858L13.6966 8.77852ZM8.42498 13.7218C8.29462 13.8143 8.2642 13.8091 8.27387 13.809C8.29138 13.8089 8.27006 13.8211 8.15863 13.7325L7.74395 14.2546C7.88503 14.3666 8.05892 14.4769 8.27757 14.4757C8.48838 14.4745 8.66504 14.3689 8.81092 14.2653L8.42498 13.7218ZM8.1743 13.7458C5.94493 11.739 4.59827 10.5889 2.85929 8.76362L2.37662 9.22348C4.13812 11.0724 5.51058 12.245 7.72827 14.2413L8.1743 13.7458ZM2.85354 8.75774C2.43355 8.33815 2.08902 7.45282 2.03686 6.42504C1.98527 5.40832 2.22487 4.33172 2.87566 3.53831L2.36021 3.11552C1.57463 4.07326 1.31378 5.33 1.37105 6.45882C1.42777 7.57657 1.80143 8.64898 2.38236 9.22937L2.85354 8.75774ZM2.87566 3.53831C3.52175 2.75061 4.50004 2.37251 5.43134 2.41979C6.35961 2.46691 7.21509 2.9332 7.65314 3.80929L8.24943 3.51115C7.68748 2.38725 6.59446 1.81131 5.46514 1.75398C4.33886 1.6968 3.15047 2.15205 2.36021 3.11552L2.87566 3.53831Z" fill="#515151"/>
</svg>
