<svg width="116" height="19" viewBox="0 0 116 19" fill="none" xmlns="http://www.w3.org/2000/svg">
<path d="M0 1.28512H7.71625V3.84416H5.17264V14.9241H2.47717V3.84416H0L0 1.28512Z" fill="#333333"/>
<path d="M19.5991 10.6127H11.2754C11.3956 11.3297 11.7152 11.9015 12.234 12.328C12.7592 12.7483 13.4267 12.9585 14.2366 12.9585C15.2047 12.9585 16.0368 12.6278 16.7328 11.9664L18.9157 12.9677C18.3716 13.7218 17.7198 14.2812 16.9606 14.6459C16.2013 15.0045 15.2996 15.1837 14.2556 15.1837C12.6358 15.1837 11.3165 14.6861 10.2978 13.6909C9.27911 12.6896 8.76976 11.4379 8.76976 9.93581C8.76976 8.39667 9.27595 7.12024 10.2883 6.10651C11.307 5.0866 12.582 4.57665 14.1132 4.57665C15.7394 4.57665 17.0618 5.0866 18.0805 6.10651C19.0992 7.12024 19.6086 8.46158 19.6086 10.1305L19.5991 10.6127ZM16.9985 8.6192C16.8277 8.0567 16.4892 7.59929 15.983 7.24695C15.4831 6.89462 14.901 6.71846 14.2366 6.71846C13.5153 6.71846 12.8826 6.91626 12.3384 7.31186C11.9967 7.55911 11.6804 7.99489 11.3893 8.6192H16.9985Z" fill="#333333"/>
<path d="M24.2972 8.47085H28.1505V4.83626H30.7511V14.9241H28.1505V10.7425H24.2972V14.9241H21.6966V4.83626H24.2972V8.47085Z" fill="#333333"/>
<path d="M34.7184 14.9241V16.6765H32.412V12.7823H33.9686L37.5277 4.83626H39.1982L42.8048 12.7823H44.3898V16.6765H41.9221V14.9241H34.7184ZM40.0524 12.7823L38.363 8.53575L36.6166 12.7823H40.0524Z" fill="#333333"/>
<path d="M56.3865 10.6127H48.0628C48.1831 11.3297 48.5026 11.9015 49.0214 12.328C49.5466 12.7483 50.2142 12.9585 51.0241 12.9585C51.9921 12.9585 52.8242 12.6278 53.5202 11.9664L55.7032 12.9677C55.159 13.7218 54.5073 14.2812 53.748 14.6459C52.9887 15.0045 52.0871 15.1837 51.043 15.1837C49.4232 15.1837 48.104 14.6861 47.0853 13.6909C46.0665 12.6896 45.5572 11.4379 45.5572 9.93581C45.5572 8.39667 46.0634 7.12024 47.0758 6.10651C48.0945 5.0866 49.3694 4.57665 50.9007 4.57665C52.5268 4.57665 53.8492 5.0866 54.8679 6.10651C55.8867 7.12024 56.396 8.46158 56.396 10.1305L56.3865 10.6127ZM53.786 8.6192C53.6151 8.0567 53.2766 7.59929 52.7704 7.24695C52.2706 6.89462 51.6884 6.71846 51.0241 6.71846C50.3027 6.71846 49.67 6.91626 49.1258 7.31186C48.7842 7.55911 48.4678 7.99489 48.1767 8.6192H53.786Z" fill="#333333"/>
<path d="M61.0656 4.83626V5.94889C61.5338 5.49147 62.04 5.14841 62.5842 4.91971C63.1283 4.691 63.7105 4.57665 64.3306 4.57665C65.6783 4.57665 66.8235 5.07424 67.7663 6.06942C68.7091 7.06461 69.1805 8.34104 69.1805 9.89872C69.1805 11.4008 68.6933 12.6587 67.7189 13.6724C66.7444 14.6799 65.5897 15.1837 64.2546 15.1837C63.6599 15.1837 63.1062 15.0817 62.5937 14.8777C62.0812 14.6676 61.5718 14.3276 61.0656 13.8578V18.6143H58.4935V4.83626H61.0656ZM63.7896 6.91317C62.9733 6.91317 62.2963 7.18514 61.7585 7.72909C61.2206 8.27305 60.9517 8.98389 60.9517 9.86163C60.9517 10.7579 61.2206 11.4842 61.7585 12.0405C62.2963 12.5907 62.9733 12.8657 63.7896 12.8657C64.5805 12.8657 65.2449 12.5845 65.7827 12.022C66.3268 11.4595 66.5989 10.7425 66.5989 9.87091C66.5989 9.00553 66.3332 8.29777 65.8017 7.74764C65.2702 7.19132 64.5995 6.91317 63.7896 6.91317Z" fill="#333333"/>
<path d="M71.3255 4.83626H73.9165V8.60993L77.4852 4.83626H80.6457L76.0426 9.75037L80.7027 14.9241H77.2669L74.1918 11.3637L73.9165 11.6789V14.9241H71.3255V4.83626Z" fill="#333333"/>
<path d="M92.1109 10.6127H83.7873C83.9075 11.3297 84.227 11.9015 84.7459 12.328C85.271 12.7483 85.9386 12.9585 86.7485 12.9585C87.7166 12.9585 88.5486 12.6278 89.2446 11.9664L91.4276 12.9677C90.8834 13.7218 90.2317 14.2812 89.4724 14.6459C88.7131 15.0045 87.8115 15.1837 86.7675 15.1837C85.1477 15.1837 83.8284 14.6861 82.8097 13.6909C81.791 12.6896 81.2816 11.4379 81.2816 9.93581C81.2816 8.39667 81.7878 7.12024 82.8002 6.10651C83.8189 5.0866 85.0939 4.57665 86.6251 4.57665C88.2512 4.57665 89.5737 5.0866 90.5924 6.10651C91.6111 7.12024 92.1204 8.46158 92.1204 10.1305L92.1109 10.6127ZM89.5104 8.6192C89.3396 8.0567 89.001 7.59929 88.4948 7.24695C87.995 6.89462 87.4129 6.71846 86.7485 6.71846C86.0272 6.71846 85.3944 6.91626 84.8503 7.31186C84.5086 7.55911 84.1922 7.99489 83.9012 8.6192H89.5104Z" fill="#333333"/>
<path d="M95.5847 14.9241H94.2085V4.83626H96.7331V10.761L102.02 4.83626H103.263V14.9241H100.738V9.11988L95.5847 14.9241ZM94.9678 0.385742H97.0653C97.2298 0.639174 97.4576 0.830794 97.7487 0.960601C98.046 1.08423 98.4067 1.14604 98.8306 1.14604C99.2609 1.14604 99.65 1.07186 99.998 0.923513C100.226 0.824613 100.425 0.645356 100.596 0.385742H102.694C102.573 1.17076 102.187 1.80125 101.536 2.27721C100.89 2.75317 99.9854 2.99115 98.8211 2.99115C98.0365 2.99115 97.3785 2.88607 96.847 2.6759C96.3218 2.45956 95.8979 2.15359 95.5752 1.75798C95.2525 1.36238 95.05 0.904969 94.9678 0.385742Z" fill="#333333"/>
<path d="M116 6.87608L113.846 8.03507C113.441 7.62092 113.039 7.33349 112.64 7.17278C112.248 7.01207 111.786 6.93171 111.254 6.93171C110.286 6.93171 109.502 7.21605 108.901 7.78473C108.306 8.34722 108.009 9.07043 108.009 9.95435C108.009 10.8135 108.296 11.5151 108.872 12.0591C109.448 12.603 110.204 12.875 111.141 12.875C112.298 12.875 113.2 12.4887 113.846 11.716L115.886 13.079C114.779 14.4821 113.216 15.1837 111.198 15.1837C109.382 15.1837 107.958 14.6583 106.927 13.6075C105.901 12.5567 105.389 11.3266 105.389 9.91726C105.389 8.94062 105.639 8.04125 106.139 7.21914C106.639 6.39703 107.335 5.75109 108.227 5.28131C109.125 4.81153 110.128 4.57665 111.235 4.57665C112.261 4.57665 113.181 4.77754 113.997 5.17932C114.814 5.57492 115.481 6.14051 116 6.87608Z" fill="#333333"/>
</svg>
