<svg width="300" height="380" viewBox="0 0 300 380" fill="none" xmlns="http://www.w3.org/2000/svg">
<path d="M0 42C0 35.3726 5.37258 30 12 30H196.376C201.282 30 205.695 27.0126 207.517 22.4567L213.483 7.54332C215.305 2.98742 219.718 0 224.624 0H288C294.627 0 300 5.37258 300 12V368C300 374.627 294.627 380 288 380H12C5.37259 380 0 374.627 0 368V42Z" fill="white"/>
<path d="M0.5 42C0.5 35.6487 5.64873 30.5 12 30.5H196.376C201.487 30.5 206.083 27.3881 207.982 22.6424L213.947 7.72901C215.693 3.36294 219.922 0.5 224.624 0.5H288C294.351 0.5 299.5 5.64873 299.5 12V368C299.5 374.351 294.351 379.5 288 379.5H12C5.64873 379.5 0.5 374.351 0.5 368V42Z" stroke="#232323" stroke-opacity="0.8"/>
</svg>
