<svg width="16" height="16" viewBox="0 0 16 16" fill="none" xmlns="http://www.w3.org/2000/svg">
<path fill-rule="evenodd" clip-rule="evenodd" d="M8.07354 14.7712L7.52719 10.0902C7.49971 9.85481 7.28657 9.68622 7.05113 9.7137L3.37041 10.1433C2.639 10.2287 1.97687 9.70496 1.8915 8.97355L1.30648 3.9614C1.22111 3.22998 1.74483 2.56785 2.47625 2.48248L12.2421 1.34261C12.9735 1.25724 13.6356 1.78097 13.721 2.51238L14.3078 7.53933C14.3924 8.26494 13.8775 8.92359 13.1529 9.01643L9.82506 9.44281C9.59181 9.4727 9.42604 9.68472 9.4533 9.91829L10.0002 14.604L8.07354 14.7712ZM9.15855 2.98113L6.86387 3.24907L6.58877 6.03926L7.36794 6.12045C7.45149 6.00717 7.53913 5.91929 7.63086 5.85682C7.72481 5.79408 7.82285 5.75675 7.92499 5.74483C8.11593 5.72253 8.28657 5.77688 8.4369 5.90786C8.58919 6.03637 8.67855 6.21385 8.705 6.44033C8.73222 6.67346 8.68235 6.87283 8.55541 7.03844C8.42846 7.20405 8.26174 7.29891 8.05525 7.32302C7.90649 7.34039 7.7654 7.31748 7.63199 7.25429C7.50054 7.18862 7.38813 7.08359 7.29475 6.9392L6.3156 7.05353C6.45707 7.45562 6.69155 7.75795 7.01903 7.96052C7.34651 8.1631 7.71896 8.24001 8.13638 8.19127C8.60264 8.13683 8.9788 7.92749 9.26485 7.56325C9.55286 7.19654 9.669 6.7745 9.61326 6.29714C9.55804 5.82421 9.36515 5.45401 9.03459 5.18653C8.706 4.91657 8.31967 4.80752 7.87561 4.85937C7.82676 4.86507 7.77621 4.87548 7.72396 4.89058C7.67145 4.90346 7.61835 4.92092 7.56466 4.94294L7.66027 4.02705L9.25888 3.84038L9.15855 2.98113Z" fill="#232323"/>
</svg>
